<svg xmlns="http://www.w3.org/2000/svg" xmlns:xlink="http://www.w3.org/1999/xlink" xml:space="preserve" width="974px" height="335px" style="shape-rendering:geometricPrecision; text-rendering:geometricPrecision; image-rendering:optimizeQuality; fill-rule:evenodd; clip-rule:evenodd" viewBox="0 0 18498 6369"> <defs> <style type="text/css"> .fil0 {fill:#E52736} .fil1 {fill:#E52736;fill-rule:nonzero} </style> </defs> <g id="Red_x0020_Logo"> <metadata id="CorelCorpID_0Corel-Layer"></metadata> <g id="_602579816"> <path class="fil0" d="M15400 1257c1945,1170 3216,2718 3089,3674l0 0c-2,16 -4,32 -7,47l0 0 0 1c-19,98 -53,190 -103,273l-1 2c-7,12 -14,23 -22,34l-6 9c-8,11 -16,22 -24,33l-6 7c-8,10 -16,19 -24,29l-5 6c-9,10 -19,20 -28,30l-8 8c-10,10 -20,19 -31,29l-3 3c-10,8 -20,17 -31,25l-8 7c-11,9 -23,18 -34,26l-8 5c-11,8 -22,15 -33,22l-6 4c-13,8 -25,16 -38,23l-10 6c-13,7 -27,15 -40,21l-6 3c-13,7 -26,13 -39,19l-9 4c-14,6 -29,13 -44,19l-9 3c-14,6 -28,11 -43,16l-5 2c-16,6 -31,11 -47,16l-12 4c-17,5 -33,9 -49,14l-7 1c-15,4 -30,8 -46,12l-12 3c-16,4 -33,7 -50,11l-14 2c-17,3 -33,6 -50,9l-5 1c-18,3 -37,6 -56,8l-12 2c-19,3 -37,5 -56,7l-13 1c-17,2 -33,3 -50,5l-12 1c-19,1 -38,2 -58,3l-16 1c-20,1 -39,2 -59,3l-2 0 0 0 -4 0c-19,0 -39,0 -58,1l-18 0c-20,0 -40,0 -61,-1l-14 0c-19,-1 -37,-1 -56,-2l-14 0c-21,-1 -42,-2 -64,-3l-18 -2c-22,-1 -43,-3 -65,-4l-11 -1c-20,-2 -40,-4 -60,-6l-18 -1c-22,-3 -44,-5 -67,-8l-19 -2c-19,-2 -38,-5 -57,-7l-16 -2c-23,-4 -46,-7 -69,-10l-19 -3c-24,-4 -47,-8 -71,-12l-17 -3c-20,-3 -39,-7 -59,-10l-21 -4c-23,-5 -47,-9 -70,-14l-23 -5c-21,-4 -42,-8 -63,-13l-14 -3c-24,-5 -48,-11 -73,-16l-23 -6c-25,-6 -50,-12 -75,-18l-14 -3c-22,-6 -45,-12 -68,-18l-20 -5c-21,-6 -42,-11 -63,-17l-17 -5 -4 -1 -11 -3 -34 -10c-136,-38 -275,-82 -416,-131 27,-51 55,-105 82,-162 38,12 76,24 114,35 107,31 214,60 322,86l10 3 10 2 10 3 10 2 42 10 13 3c25,5 50,11 75,16l15 3c43,9 85,17 127,24l22 4c21,4 43,7 64,11l17 3c21,3 41,6 62,9l22 3 38 5 1 0c15,2 29,4 43,5 13,2 25,3 37,4l18 2c20,2 40,4 60,6l19 2c18,1 37,3 55,4l24 1c11,1 23,2 34,2l23 1c16,1 32,2 48,2l28 1c15,0 30,0 45,1l24 0 32 -1c13,0 27,0 40,0l28 -1 28 -2c13,0 25,-1 38,-2l28 -2 27 -2c13,-1 26,-2 38,-4l24 -2c13,-2 27,-3 40,-5 8,-1 15,-2 23,-3 9,-2 18,-3 27,-5 10,-1 21,-3 31,-5 10,-2 20,-4 30,-6l19 -3c13,-3 26,-6 39,-9l19 -4c13,-4 26,-7 39,-10l14 -4c10,-3 21,-6 32,-10l14 -4c12,-4 25,-8 37,-13l14 -5c13,-4 25,-9 37,-14l14 -5c10,-5 21,-9 31,-14l14 -6c10,-5 20,-10 30,-15l10 -5c12,-6 23,-12 34,-18l11 -7c11,-6 22,-12 32,-19l9 -6c9,-6 19,-12 28,-19l7 -4c10,-8 20,-15 29,-23l9 -7c10,-8 19,-16 28,-24l8 -6c9,-9 18,-17 27,-26l5 -6c8,-8 16,-16 23,-24l5 -6c9,-10 16,-19 24,-29l6 -7c8,-10 15,-20 22,-30l5 -7c7,-10 13,-21 20,-31l1 -2c493,-820 -713,-2450 -2693,-3641 -696,-418 -1395,-727 -2030,-915 -107,-31 -214,-61 -322,-87l-10 -2 -10 -3 -10 -2 -10 -2 -42 -10 -13 -3c-25,-5 -50,-11 -75,-16l-15 -3c-43,-9 -85,-17 -127,-25l-22 -3c-21,-4 -43,-8 -64,-11l-17 -3c-21,-3 -42,-6 -62,-9l-22 -3 -38 -5 -1 0c-15,-2 -29,-4 -43,-6l-37 -4 -18 -2c-21,-2 -41,-4 -61,-5l-18 -2c-19,-2 -37,-3 -55,-4l-24 -2c-11,0 -23,-1 -34,-2l-23 -1c-16,0 -32,-1 -48,-2l-28 0c-15,-1 -30,-1 -46,-1l-23 0 -32 0c-13,0 -27,1 -40,1l-28 1 -28 1c-13,1 -25,2 -38,2l-29 2 -26 3c-13,1 -26,2 -38,3l-24 3c-14,1 -27,3 -40,5 -8,1 -15,2 -23,3 -9,2 -18,3 -27,4 -11,2 -21,4 -31,6 -10,1 -20,3 -30,5l-19 4c-13,3 -26,5 -39,8l-19 5c-13,3 -26,7 -39,10l-14 4c-11,3 -21,6 -32,9l-14 5c-12,4 -25,8 -37,12l-15 5c-12,5 -24,10 -36,14l-14 6c-10,4 -21,9 -31,13l-14 7c-10,5 -20,10 -30,15l-10 5c-12,5 -23,12 -34,18l-12 6c-10,7 -21,13 -31,20l-9 5c-10,7 -19,13 -29,20l-6 4c-10,7 -20,15 -30,23l-8 6c-10,8 -19,16 -28,24l-8 7c-9,9 -18,17 -27,26l-5 5c-8,8 -16,17 -23,25l-6 6c-8,9 -16,19 -23,28l-6 8c-8,10 -15,20 -22,30l-5 7c-7,10 -13,20 -20,31l-1 2c-238,395 -81,978 366,1609l-272 0c-416,-562 -627,-1091 -571,-1508l-1 0c3,-16 5,-32 8,-48l0 0 0 -1c19,-98 53,-189 103,-273l1 -1c7,-12 14,-23 22,-35l6 -9c8,-11 16,-22 24,-33l6 -7c8,-9 15,-19 24,-28l5 -6c9,-10 19,-21 28,-30l8 -8c10,-10 20,-20 31,-29l3 -3c10,-9 20,-17 31,-26l8 -7c11,-8 22,-17 34,-25l8 -6c11,-7 22,-15 33,-22l6 -4c12,-8 25,-15 38,-23l10 -5c13,-8 26,-15 40,-22l6 -3c13,-6 26,-12 39,-18l9 -4c14,-7 29,-13 43,-19l10 -4c14,-5 28,-10 43,-16l5 -2c15,-5 31,-10 47,-15l12 -4c16,-5 33,-10 49,-14l7 -2c15,-4 30,-8 46,-11l12 -3c16,-4 33,-7 50,-11l14 -3c16,-3 33,-6 50,-9l5 0c18,-3 37,-6 56,-9l12 -1c19,-3 37,-5 56,-7l13 -1c17,-2 33,-4 50,-5l12 -1c19,-1 38,-3 58,-4l16 -1c19,0 39,-1 59,-2l2 0 0 0 3 0c20,0 39,-1 59,-1l17 0c21,0 41,0 62,0l14 1c19,0 37,1 56,1l13 1c22,1 43,2 64,3l19 1c22,2 43,3 65,5l11 1c20,2 40,3 60,5l18 2c22,2 44,5 66,7l20 3c19,2 38,4 57,7l16 2c23,3 46,7 69,10l19 3c24,4 47,8 71,12l17 3c20,3 39,6 59,10l21 4c23,4 46,9 70,14l23 4c21,5 42,9 63,14l14 3c24,5 48,10 73,16l23 6c25,5 50,11 74,18l15 3c22,6 45,12 67,18l20 5c22,5 43,11 64,17l17 5 4 1 11 3 34 9c724,207 1529,557 2331,1040z"></path> <path class="fil0" d="M15242 1519c1375,827 2348,1879 2555,2669l0 0c4,13 7,27 10,40l2 7c3,14 6,28 8,42l2 6c2,14 5,28 7,42l0 4c3,15 4,29 6,43l0 4c2,14 3,28 4,42l0 4c1,14 2,28 2,41l0 4c0,14 0,28 0,42l0 2c-1,14 -1,28 -2,42l0 0c-1,15 -3,29 -5,43l0 0c-2,14 -4,28 -6,42l0 0c-3,13 -6,27 -9,40l0 1c-17,67 -42,130 -77,188l-2 2c-5,10 -12,19 -18,28l-6 9c-6,9 -12,18 -19,26l-2 3c-7,9 -15,18 -23,27l-7 8c-7,8 -14,15 -21,23l-4 3c-8,9 -17,17 -25,25l-8 7c-8,7 -16,13 -24,20l-5 4c-9,7 -19,15 -29,22l-8 5c-9,7 -18,13 -28,19l-4 3c-11,7 -22,13 -33,20l-8 4c-10,6 -20,11 -29,16l-8 4c-11,6 -23,11 -35,17l-9 3c-10,5 -21,9 -31,14l-8 3c-13,5 -26,10 -39,14l-9 4c-11,4 -23,7 -34,11l-8 3c-14,4 -28,8 -42,12l-10 2c-11,3 -23,6 -35,9l-11 3c-14,3 -29,6 -44,9l-9 2c-13,2 -26,5 -39,7l-11 2c-15,2 -30,4 -46,7l-11 1c-13,2 -26,3 -39,5l-13 1c-16,2 -32,3 -49,4l-9 1c-14,1 -28,2 -42,3l-15 1c-17,1 -34,1 -51,2l-9 0c-15,0 -30,0 -45,1l-13 0c-18,0 -36,0 -54,-1l-10 0c-15,0 -30,-1 -45,-1l-19 -1c-18,-1 -35,-2 -54,-3l-8 0c-16,-1 -32,-3 -48,-4l-19 -1c-19,-2 -38,-4 -57,-5l-3 -1c-18,-2 -37,-4 -55,-6l-20 -2c-19,-2 -38,-5 -57,-7l0 0 -2 -1 -6 0c-18,-3 -36,-6 -54,-8l-18 -3c-20,-3 -39,-6 -58,-9l-4 -1 0 0 -4 -1c-19,-3 -39,-7 -59,-10l-17 -4c-21,-4 -42,-8 -63,-12l-1 0 -1 0c-21,-5 -42,-9 -63,-14l-20 -4c-19,-4 -38,-8 -57,-13l-6 -1 -4 -1c-21,-5 -42,-10 -63,-16l-18 -4c-20,-5 -40,-10 -60,-15l-8 -2c-23,-6 -46,-13 -69,-19l-15 -4c-20,-6 -40,-12 -61,-18l-10 -3 -1 0c22,-50 44,-99 65,-147l5 1c24,6 48,12 71,18l9 2 41 9 1 0c25,6 51,12 76,17l14 3 36 7c14,3 28,6 42,8l33 6 19 3c21,4 42,8 64,11l8 1 35 6 16 2c18,2 37,5 56,7l18 2 30 4 28 3c13,1 27,2 40,4l23 2 27 2c12,1 25,2 37,2l1 0 28 2 22 1c14,0 28,1 41,1l24 1 25 0 28 0c10,0 21,0 32,0l24 0 23 -1c13,-1 25,-1 38,-2l20 -1 25 -2c8,0 16,-1 23,-2 12,-1 23,-2 34,-3l19 -2c9,-1 19,-2 29,-4l21 -3c10,-1 19,-2 29,-4l17 -3c12,-2 24,-4 35,-6l15 -4c9,-1 18,-3 26,-5l15 -4c11,-2 23,-5 34,-9l13 -3c9,-3 19,-5 28,-8l10 -3c11,-4 22,-8 34,-12l11 -4c11,-4 22,-8 33,-12l5 -3c10,-4 20,-8 29,-12l10 -5c11,-4 21,-9 31,-15l7 -3c9,-5 18,-10 26,-14l7 -4c10,-6 20,-12 29,-18l7 -5c9,-5 18,-11 27,-17l2 -2c9,-7 18,-13 27,-20l7 -6c8,-7 16,-14 25,-21l3 -3c7,-7 15,-14 22,-21l5 -5c7,-8 15,-15 22,-24l4 -5c7,-7 13,-14 19,-22l4 -4c6,-9 12,-17 19,-26l4 -7c6,-9 12,-18 18,-27l0 -1 0 0c6,-10 12,-21 18,-32l1 -1c5,-11 10,-21 15,-32l1 -1c10,-23 18,-46 26,-69l0 -2c4,-12 7,-23 10,-34l0 -3c3,-11 6,-22 8,-34l1 -5c2,-10 3,-21 5,-32l1 -7c1,-10 2,-20 3,-31l1 -9c1,-10 1,-19 2,-29l0 -12c0,-9 0,-18 0,-28l0 -14c0,-8 0,-17 -1,-26l-1 -16c0,-8 -1,-16 -2,-25 -1,-6 -1,-13 -2,-20 -1,-7 -2,-13 -2,-19 -2,-9 -3,-17 -4,-25l-3 -18c-1,-8 -3,-17 -5,-26 -142,-728 -1040,-1725 -2328,-2500 -612,-368 -1226,-634 -1779,-790 -41,-11 -81,-22 -121,-32l-13 -4c-24,-6 -48,-11 -71,-17l-9 -2 -41 -9 -1 -1c-25,-5 -51,-11 -76,-16l-14 -3 -36 -7c-14,-3 -28,-6 -42,-8l-33 -6 -19 -4c-21,-3 -43,-7 -64,-10l-8 -2 -35 -5 -16 -2c-19,-3 -37,-5 -56,-7l-18 -3 -30 -3 -28 -3c-14,-1 -27,-3 -40,-4l-23 -2 -27 -2c-12,-1 -25,-2 -37,-3l-1 0 -29 -1 -21 -1c-14,-1 -28,-1 -41,-2l-24 0 -25 -1 -28 0c-11,0 -21,0 -32,1l-25 0 -22 1c-13,0 -26,1 -38,1l-20 2 -26 1c-7,1 -15,2 -22,2 -12,1 -23,2 -34,4l-19 2c-10,1 -19,2 -29,3l-21 3c-10,2 -20,3 -29,5l-17 2c-12,3 -24,5 -35,7l-15 3c-9,2 -18,4 -26,6l-15 3c-12,3 -23,6 -35,9l-12 4c-10,2 -19,5 -28,8l-10 3c-11,4 -23,7 -34,11l-11 4c-11,5 -22,9 -33,13l-6 2c-9,4 -19,9 -29,13l-9 4c-11,5 -21,10 -31,15l-7 4c-9,4 -18,9 -27,14l-6 4c-10,6 -20,11 -29,17l-8 5c-8,6 -17,12 -26,18l-2 2c-9,6 -18,13 -27,20l-7 5c-8,7 -17,14 -25,22l-3 3c-8,7 -15,13 -22,20l-5 6c-8,7 -15,15 -22,23l-5 5c-6,8 -12,15 -18,23l-4 4c-6,8 -13,17 -19,26l-4 6c-6,9 -12,19 -18,28l0 0 0 0c-6,11 -12,22 -18,32l-1 2c-5,10 -11,21 -15,32l-1 1c-10,22 -18,45 -26,69l0 2c-4,11 -7,22 -10,34l0 2c-3,12 -6,23 -8,34l-1 5c-2,11 -4,22 -5,32l-1 7c-1,11 -2,21 -3,31l-1 10c-1,9 -1,19 -2,28l0 13c0,9 0,18 0,27l0 14c0,9 0,18 1,26l1 17c0,8 1,16 2,24 0,7 1,14 2,21 1,6 1,13 2,19 1,8 3,17 4,25l3 18c1,8 3,17 5,25 42,217 152,458 318,710l-231 0c-189,-270 -319,-529 -381,-765l0 0c-4,-14 -7,-27 -10,-40l-2 -8c-3,-13 -6,-27 -9,-41l-1 -6c-2,-14 -5,-28 -7,-42l-1 -5c-2,-14 -3,-28 -5,-42l-1 -5c-1,-14 -2,-28 -3,-42l0 -3c-1,-14 -2,-28 -2,-42l0 -4c-1,-14 0,-27 0,-41l0 -2c0,-14 1,-29 2,-43l0 0c1,-14 3,-28 5,-42l0 -1c2,-13 4,-27 6,-41l0 0c3,-14 6,-27 9,-41l0 0c16,-67 42,-130 77,-189l2 -2c5,-9 11,-18 18,-28l6 -8c6,-9 12,-18 19,-26l2 -3c7,-9 15,-18 22,-27l8 -8c7,-8 14,-16 21,-23l4 -4c8,-8 16,-16 25,-24l8 -7c8,-7 16,-14 24,-20l5 -4c9,-8 19,-15 29,-22l8 -6c9,-6 18,-12 27,-18l5 -3c11,-7 22,-14 33,-20l8 -5c10,-5 19,-10 29,-15l8 -4c11,-6 23,-11 35,-17l9 -4c10,-4 21,-9 31,-13l8 -3c13,-5 26,-10 38,-15l10 -3c11,-4 23,-8 34,-11l8 -3c14,-4 28,-8 42,-12l10 -3c11,-3 23,-6 35,-8l11 -3c14,-3 29,-6 43,-9l10 -2c13,-3 26,-5 39,-7l10 -2c16,-2 31,-5 47,-7l10 -1c13,-2 26,-3 40,-5l13 -1c16,-2 32,-4 49,-5l9 0c14,-1 28,-2 42,-3l15 -1c16,-1 33,-1 51,-2l8 0c16,-1 31,-1 46,-1l13 0c18,0 36,0 54,0l10 1c15,0 30,0 45,1l18 1c18,1 36,1 55,3l8 0c16,1 32,2 48,3l19 2c19,2 38,3 57,5l3 0c18,2 36,4 55,6l20 3c19,2 38,4 57,7l0 0 2 0 6 1c18,3 36,5 54,8l18 3c19,3 39,6 58,9l4 1 0 0 4 0c19,4 39,7 59,11l17 3c21,4 41,8 63,13l1 0 1 0c21,4 42,9 63,13l19 5c20,4 39,8 58,13l6 1 3 1c22,5 43,10 64,15l18 5c20,5 40,10 60,15l8 2c23,6 46,12 69,19l15 4c20,6 40,11 61,17l10 3c22,7 45,14 68,21l19 5c19,6 39,13 59,19l12 4 5 1 0 0c552,178 1151,450 1748,809zm1576 3523c12,-2 24,-4 35,-6m-4818 -4327c-12,3 -24,5 -35,7"></path> <polygon class="fil1" points="2825,1570 2825,2223 1825,2223 1825,5126 1000,5126 1000,2223 0,2223 0,1570 "></polygon> <path class="fil1" d="M2575 5126l0 -2532 449 0c37,0 69,3 94,10 25,7 47,17 64,31 17,14 30,32 39,55 9,23 16,51 22,83l42 238c93,-144 197,-257 312,-340 116,-84 242,-126 378,-126 116,0 208,29 278,85l-97 557c-7,34 -20,58 -39,72 -20,13 -46,21 -78,21 -28,0 -60,-4 -98,-12 -37,-7 -84,-10 -141,-10 -199,0 -355,113 -469,340l0 1528 -756 0z"></path> <path class="fil1" d="M5194 2594l0 1607c0,126 29,223 85,291 57,68 141,102 252,102 83,0 161,-17 233,-51 72,-34 142,-82 211,-144l0 -1805 756 0 0 2532 -469 0c-94,0 -156,-41 -185,-125l-46 -144c-49,46 -99,89 -151,126 -53,38 -108,70 -167,97 -60,26 -124,47 -192,63 -68,15 -143,22 -224,22 -139,0 -261,-24 -367,-72 -107,-48 -197,-115 -270,-201 -73,-86 -129,-189 -166,-306 -37,-117 -56,-245 -56,-385l0 -1607 756 0z"></path> <path class="fil1" d="M8711 3149c-20,31 -40,52 -62,65 -22,13 -50,19 -85,19 -35,0 -71,-8 -107,-23 -36,-16 -74,-32 -115,-50 -42,-18 -89,-35 -141,-50 -52,-16 -111,-23 -178,-23 -96,0 -169,19 -221,55 -51,37 -77,87 -77,152 0,47 17,87 51,117 33,32 77,59 132,83 55,23 118,46 188,67 70,21 141,45 215,71 73,26 144,56 214,91 70,35 133,79 188,130 55,51 100,113 134,186 33,73 49,162 49,264 0,126 -23,241 -68,347 -46,105 -113,197 -203,274 -91,76 -202,136 -335,178 -132,42 -285,63 -457,63 -87,0 -173,-8 -259,-24 -86,-16 -169,-38 -250,-66 -80,-28 -155,-61 -223,-99 -69,-38 -127,-79 -176,-123l176 -280c21,-33 46,-58 75,-77 30,-19 68,-28 115,-28 44,0 84,9 119,29 35,19 72,41 113,63 40,23 88,44 143,64 54,19 123,29 206,29 58,0 108,-6 148,-19 41,-12 74,-28 98,-49 24,-21 42,-45 54,-71 11,-26 17,-53 17,-81 0,-50 -17,-91 -52,-124 -34,-32 -78,-61 -134,-84 -55,-24 -118,-46 -188,-66 -71,-21 -143,-43 -217,-69 -73,-26 -144,-58 -215,-95 -71,-36 -134,-83 -190,-139 -55,-56 -100,-124 -134,-206 -34,-81 -51,-179 -51,-295 0,-107 21,-209 63,-306 41,-97 103,-182 186,-255 83,-73 187,-131 312,-175 125,-43 272,-64 439,-64 91,0 180,8 265,25 86,16 165,39 240,69 75,29 143,64 205,105 62,39 116,83 163,131l-170 264z"></path> <path class="fil1" d="M10047 5165c-121,0 -226,-18 -318,-53 -92,-35 -169,-84 -232,-148 -63,-65 -111,-143 -143,-234 -33,-91 -49,-192 -49,-305l0 -1309 -215 0c-39,0 -72,-12 -100,-37 -27,-25 -41,-61 -41,-109l0 -291 402 -79 149 -622c20,-79 75,-118 166,-118l395 0 0 739 615 0 0 517 -615 0 0 1257c0,58 15,106 43,144 29,38 69,58 123,58 28,0 51,-3 70,-9 19,-6 35,-12 49,-19 14,-8 27,-14 39,-20 12,-6 26,-8 42,-8 23,0 42,5 55,15 14,12 28,28 43,51l229 361c-98,73 -207,127 -329,164 -122,37 -248,55 -378,55z"></path> <polygon class="fil1" points="11739,2594 11739,5126 10982,5126 10982,2594 "></polygon> <path class="fil0" d="M12309 5126l0 -2012 -166 -34c-57,-13 -103,-34 -138,-61 -35,-28 -53,-69 -53,-122l0 -298 357 0 0 -144c0,-145 23,-276 69,-393 47,-117 114,-217 201,-300 87,-83 192,-147 317,-192 126,-46 268,-69 427,-69 62,0 120,4 173,13 53,8 107,22 164,41l-15 363c-1,26 -8,47 -20,64 -12,16 -28,30 -46,41 -17,10 -37,17 -59,22 -22,5 -44,8 -65,8 -67,0 -126,6 -178,19 -52,13 -95,36 -130,69 -35,34 -62,77 -80,132 -18,54 -27,124 -27,207l0 119 312 0 226 517 -513 0 0 2010 -756 0z"></path> <path class="fil1" d="M14887 5785c-23,50 -51,87 -83,111 -33,23 -85,35 -156,35l-566 0 487 -1025 -1009 -2312 668 0c59,0 104,13 137,39 32,26 55,57 68,93l415 1093c39,101 70,202 95,303 16,-52 34,-103 53,-154 20,-50 39,-102 56,-154l376 -1088c13,-37 39,-68 77,-94 39,-25 79,-38 123,-38l610 0 -1351 3191z"></path> <g> <path class="fil1" d="M1488 5557c-3,5 -6,9 -9,12 -4,2 -8,4 -14,4 -6,0 -12,-3 -20,-9 -8,-6 -18,-13 -29,-20 -12,-7 -27,-13 -43,-19 -17,-6 -37,-9 -61,-9 -22,0 -42,3 -59,9 -17,6 -32,15 -43,25 -12,10 -20,22 -26,36 -6,14 -9,29 -9,45 0,21 5,38 15,52 10,13 24,25 40,35 17,9 36,17 57,24 21,7 43,15 65,22 22,8 44,16 65,26 21,9 40,21 57,36 16,14 30,32 40,53 10,21 15,47 15,77 0,33 -5,63 -16,91 -11,29 -27,53 -48,74 -22,21 -48,38 -78,50 -31,12 -66,18 -105,18 -48,0 -92,-9 -131,-26 -39,-18 -73,-41 -101,-71l29 -47c3,-4 6,-7 10,-10 4,-3 8,-4 13,-4 7,0 16,4 25,12 9,7 21,16 35,25 14,9 31,18 50,26 20,7 44,11 73,11 23,0 45,-3 63,-10 19,-6 35,-15 47,-27 13,-12 23,-26 30,-43 7,-16 10,-35 10,-55 0,-22 -5,-41 -15,-55 -10,-14 -23,-26 -40,-36 -16,-9 -35,-17 -56,-24 -21,-7 -43,-14 -65,-21 -22,-7 -44,-15 -65,-24 -21,-9 -40,-21 -57,-36 -16,-15 -29,-34 -40,-56 -10,-22 -15,-49 -15,-82 0,-26 5,-51 15,-76 11,-24 25,-46 44,-65 20,-19 44,-34 72,-45 28,-11 61,-17 98,-17 41,0 78,6 112,20 34,13 64,32 90,57l-25 47zm361 92c31,0 60,6 86,16 27,11 50,26 69,46 19,19 34,44 45,73 11,29 16,62 16,100 0,14 -1,24 -4,28 -3,5 -9,8 -18,8l-347 0c0,33 5,62 13,86 8,25 20,45 34,61 15,17 32,29 52,37 20,8 42,12 67,12 23,0 43,-3 59,-8 17,-5 31,-11 43,-17 12,-7 23,-12 31,-18 8,-5 15,-8 20,-8 8,0 14,3 18,9l26 34c-12,13 -25,25 -41,35 -16,11 -33,19 -51,25 -18,7 -37,12 -56,15 -19,3 -38,5 -57,5 -36,0 -69,-6 -100,-19 -30,-12 -56,-30 -79,-53 -22,-24 -39,-53 -52,-88 -12,-34 -18,-74 -18,-120 0,-36 6,-70 17,-102 11,-31 27,-59 48,-82 21,-23 46,-41 77,-55 30,-13 64,-20 102,-20zm2 69c-44,0 -79,12 -105,38 -25,25 -41,61 -47,106l284 0c0,-21 -3,-41 -9,-58 -6,-18 -14,-33 -26,-46 -11,-13 -25,-23 -41,-30 -16,-7 -35,-10 -56,-10zm688 33c-3,3 -6,6 -9,8 -2,2 -6,3 -11,3 -6,0 -11,-2 -17,-6 -6,-4 -14,-9 -23,-14 -9,-5 -21,-10 -34,-14 -13,-5 -29,-7 -49,-7 -25,0 -48,5 -67,14 -20,9 -36,22 -49,39 -14,17 -23,38 -30,63 -7,24 -10,51 -10,82 0,31 3,59 10,84 8,24 18,45 31,62 13,16 29,29 48,38 18,9 39,13 63,13 22,0 40,-3 55,-8 14,-5 26,-11 36,-18 10,-6 18,-12 24,-18 6,-5 12,-7 18,-7 8,0 14,2 18,8l26 34c-23,28 -51,48 -85,61 -34,13 -70,20 -108,20 -33,0 -63,-6 -91,-18 -28,-12 -53,-30 -73,-53 -21,-23 -37,-51 -49,-84 -12,-33 -18,-71 -18,-114 0,-39 6,-75 17,-108 10,-33 26,-62 47,-85 21,-24 46,-43 77,-56 31,-14 66,-21 105,-21 37,0 69,6 97,18 28,12 53,29 75,51l-24 33zm204 -93l0 333c0,40 10,70 28,92 18,22 45,33 82,33 27,0 52,-7 76,-19 24,-13 46,-31 66,-54l0 -385 91 0 0 523 -54 0c-13,0 -22,-7 -25,-20l-7 -56c-23,25 -48,45 -77,61 -28,15 -60,23 -97,23 -28,0 -53,-5 -75,-14 -22,-10 -40,-23 -55,-40 -15,-18 -26,-38 -33,-63 -8,-24 -11,-51 -11,-81l0 -333 91 0zm494 523l0 -523 53 0c10,0 17,2 21,6 3,4 6,11 7,21l7 86c17,-39 40,-69 66,-90 26,-22 57,-33 92,-33 15,0 28,2 40,5 11,4 22,8 32,15l-12 68c-2,9 -8,13 -16,13 -5,0 -12,-2 -22,-5 -10,-3 -24,-5 -42,-5 -32,0 -58,10 -80,29 -21,20 -39,48 -54,85l0 328 -92 0zm623 -532c31,0 60,6 86,16 27,11 50,26 69,46 19,19 34,44 45,73 11,29 16,62 16,100 0,14 -1,24 -4,28 -3,5 -9,8 -18,8l-347 0c0,33 5,62 13,86 8,25 20,45 34,61 14,17 32,29 52,37 20,8 42,12 67,12 23,0 43,-3 59,-8 17,-5 31,-11 43,-17 12,-7 22,-12 30,-18 9,-5 15,-8 21,-8 8,0 14,3 18,9l26 34c-12,13 -25,25 -41,35 -16,11 -33,19 -51,25 -18,7 -37,12 -56,15 -19,3 -38,5 -57,5 -36,0 -69,-6 -100,-19 -30,-12 -57,-30 -79,-53 -22,-24 -39,-53 -52,-88 -12,-34 -18,-74 -18,-120 0,-36 6,-70 17,-102 11,-31 27,-59 48,-82 21,-23 46,-41 77,-55 30,-13 64,-20 102,-20zm2 69c-45,0 -79,12 -105,38 -25,25 -41,61 -47,106l284 0c0,-21 -3,-41 -9,-58 -6,-18 -14,-33 -26,-46 -11,-13 -25,-23 -41,-30 -17,-7 -35,-10 -56,-10zm1000 -277l0 82 -355 0 0 245 288 0 0 78 -288 0 0 253 355 0 0 82 -455 0 0 -740 455 0zm64 217l75 0c7,0 13,2 18,5 5,4 8,9 10,14l133 336c4,13 8,25 11,37 3,13 5,25 8,37 3,-12 5,-24 9,-37 3,-12 7,-24 11,-37l134 -336c2,-6 6,-10 11,-14 4,-3 10,-5 17,-5l71 0 -213 523 -83 0 -212 -523zm787 -9c31,0 60,6 86,16 27,11 50,26 69,46 19,19 34,44 45,73 11,29 16,62 16,100 0,14 -1,24 -4,28 -3,5 -9,8 -18,8l-347 0c0,33 5,62 13,86 8,25 20,45 34,61 15,17 32,29 52,37 20,8 42,12 67,12 23,0 43,-3 59,-8 17,-5 31,-11 43,-17 12,-7 23,-12 31,-18 8,-5 15,-8 20,-8 8,0 14,3 18,9l26 34c-12,13 -25,25 -41,35 -16,11 -33,19 -51,25 -18,7 -36,12 -56,15 -19,3 -38,5 -57,5 -36,0 -69,-6 -100,-19 -30,-12 -56,-30 -79,-53 -22,-24 -39,-53 -51,-88 -13,-34 -19,-74 -19,-120 0,-36 6,-70 17,-102 11,-31 27,-59 48,-82 21,-23 47,-41 77,-55 30,-13 64,-20 102,-20zm2 69c-44,0 -79,12 -105,38 -25,25 -41,61 -47,106l284 0c0,-21 -3,-41 -9,-58 -6,-18 -14,-33 -26,-46 -11,-13 -25,-23 -41,-30 -16,-7 -35,-10 -56,-10zm331 463l0 -523 53 0c10,0 17,2 21,6 3,4 6,11 7,21l7 86c17,-39 40,-69 66,-90 26,-22 57,-33 92,-33 15,0 28,2 40,5 11,4 22,8 32,15l-12 68c-2,9 -8,13 -16,13 -5,0 -12,-2 -22,-5 -10,-3 -24,-5 -42,-5 -32,0 -58,10 -80,29 -21,20 -39,48 -54,85l0 328 -92 0zm569 154c-3,7 -7,13 -11,17 -5,4 -12,6 -22,6l-68 0 96 -204 -216 -496 79 0c8,0 15,2 19,6 4,4 8,9 10,13l140 334c3,7 5,15 8,23 2,7 4,15 5,23 3,-8 5,-16 8,-23 2,-8 5,-16 8,-24l136 -333c2,-5 5,-10 10,-13 5,-4 10,-6 16,-6l74 0 -292 677zm533 -146c-41,0 -73,-12 -95,-35 -22,-23 -33,-56 -33,-99l0 -320 -63 0c-5,0 -10,-2 -14,-5 -4,-4 -6,-9 -6,-15l0 -37 86 -11 21 -161c1,-6 3,-10 7,-13 4,-3 9,-5 14,-5l47 0 0 180 149 0 0 67 -149 0 0 314c0,22 5,38 16,49 10,10 24,16 41,16 10,0 18,-2 25,-4 7,-3 13,-6 18,-9 5,-3 10,-6 14,-8 3,-3 6,-4 9,-4 5,0 9,3 13,9l27 44c-16,15 -35,26 -58,34 -22,9 -45,13 -69,13zm227 -8l0 -760 92 0 0 307c22,-24 47,-43 74,-57 27,-14 58,-22 94,-22 28,0 53,5 75,15 22,9 40,23 55,40 14,17 25,38 33,63 8,24 11,51 11,81l0 333 -91 0 0 -333c0,-40 -9,-71 -27,-92 -18,-22 -46,-33 -83,-33 -27,0 -53,6 -76,19 -24,13 -46,31 -65,54l0 385 -92 0zm675 -523l0 523 -92 0 0 -523 92 0zm21 -164c0,9 -2,17 -6,25 -3,7 -8,14 -14,20 -6,6 -13,11 -21,15 -8,3 -16,5 -25,5 -9,0 -17,-2 -25,-5 -8,-4 -15,-9 -21,-15 -6,-6 -11,-13 -14,-20 -3,-8 -5,-16 -5,-25 0,-9 2,-18 5,-26 3,-8 8,-15 14,-21 6,-6 13,-11 21,-14 8,-4 16,-5 25,-5 9,0 17,1 25,5 8,3 15,8 21,14 6,6 11,13 14,21 4,8 6,17 6,26zm141 687l0 -523 55 0c13,0 21,6 24,19l8 57c22,-26 48,-46 76,-61 28,-16 60,-24 97,-24 28,0 54,5 76,15 21,9 40,23 54,40 15,17 26,38 33,63 8,24 12,51 12,81l0 333 -92 0 0 -333c0,-40 -9,-71 -27,-92 -18,-22 -46,-33 -83,-33 -27,0 -52,6 -76,19 -23,13 -45,31 -65,54l0 385 -92 0zm749 -532c23,0 44,3 64,8 20,5 38,12 54,22l142 0 0 34c0,11 -8,19 -22,22l-59 8c11,22 17,47 17,75 0,25 -5,49 -14,69 -10,21 -24,39 -41,54 -17,15 -38,26 -62,34 -24,8 -50,12 -79,12 -24,0 -47,-3 -69,-9 -11,7 -19,15 -25,23 -5,8 -8,16 -8,24 0,13 5,22 15,29 10,6 23,11 39,14 17,3 36,4 57,4 21,0 42,0 64,0 22,0 43,2 64,6 21,4 40,10 56,19 17,8 30,20 40,36 10,15 15,35 15,59 0,23 -6,45 -17,66 -11,21 -27,40 -48,57 -21,16 -47,30 -77,39 -30,10 -64,15 -103,15 -38,0 -71,-4 -100,-11 -29,-8 -52,-18 -71,-30 -19,-13 -33,-28 -43,-45 -9,-16 -14,-34 -14,-52 0,-26 8,-48 25,-66 16,-18 38,-32 67,-43 -15,-7 -27,-16 -36,-27 -8,-12 -13,-27 -13,-46 0,-8 2,-16 4,-24 3,-8 7,-16 13,-24 6,-7 13,-15 21,-22 8,-7 18,-14 29,-19 -26,-15 -46,-34 -61,-58 -14,-24 -22,-52 -22,-84 0,-26 5,-49 15,-70 10,-20 23,-38 41,-53 17,-14 38,-26 63,-34 24,-8 50,-12 79,-12zm163 559c0,-14 -3,-24 -11,-32 -7,-9 -17,-15 -29,-19 -12,-4 -27,-8 -43,-10 -16,-2 -33,-3 -51,-3 -18,0 -36,0 -54,0 -19,0 -37,-2 -54,-7 -19,9 -35,21 -47,34 -12,13 -19,29 -19,48 0,12 3,23 10,33 6,10 15,19 27,26 12,8 28,13 47,18 18,4 40,6 66,6 25,0 47,-2 66,-7 20,-4 37,-11 50,-19 14,-8 24,-18 31,-30 8,-12 11,-24 11,-38zm-163 -282c19,0 35,-3 50,-8 14,-5 26,-12 35,-22 10,-9 17,-20 22,-33 5,-13 7,-27 7,-43 0,-32 -9,-57 -29,-76 -19,-19 -48,-29 -85,-29 -37,0 -65,10 -84,29 -19,19 -29,44 -29,76 0,16 2,30 7,43 5,13 13,24 22,33 10,10 22,17 36,22 14,5 30,8 48,8zm322 198c0,-9 1,-17 4,-25 4,-8 8,-15 14,-21 6,-6 12,-11 20,-14 8,-3 17,-5 25,-5 9,0 18,2 26,5 8,3 15,8 20,14 6,6 11,13 14,21 3,8 5,16 5,25 0,9 -2,18 -5,26 -3,8 -8,14 -14,20 -5,6 -12,11 -20,14 -8,3 -17,5 -26,5 -8,0 -17,-2 -25,-5 -8,-3 -14,-8 -20,-14 -6,-6 -10,-12 -14,-20 -3,-8 -4,-17 -4,-26zm1069 57l-77 0c-9,0 -16,-3 -22,-7 -5,-5 -9,-10 -12,-17l-69 -179 -332 0 -69 179c-2,6 -6,12 -12,16 -6,5 -13,8 -22,8l-77 0 295 -740 102 0 295 740zm-484 -274l276 0 -116 -301c-7,-19 -15,-42 -22,-70 -4,14 -7,27 -11,39 -4,12 -7,22 -11,31l-116 301zm665 -486l0 760 -91 0 0 -760 91 0zm94 237l72 0c8,0 14,2 19,5 5,4 8,9 10,14l100 336c3,13 5,25 8,36 2,12 4,23 6,35 2,-12 6,-23 9,-35 3,-11 7,-23 11,-36l110 -338c2,-5 5,-10 9,-13 5,-4 10,-5 16,-5l40 0c7,0 13,1 17,5 5,3 8,8 9,13l108 338c4,12 7,24 10,36 3,12 6,23 9,35 2,-12 4,-24 7,-36 2,-13 5,-24 8,-35l102 -336c2,-6 5,-10 10,-14 5,-3 11,-5 17,-5l69 0 -169 523 -73 0c-8,0 -15,-6 -18,-18l-116 -355c-2,-7 -5,-16 -6,-24 -2,-8 -4,-16 -5,-24 -2,8 -4,16 -6,25 -1,8 -4,16 -6,24l-117 354c-4,12 -11,18 -22,18l-69 0 -169 -523zm1242 523l-41 0c-9,0 -16,-2 -22,-5 -5,-2 -9,-8 -10,-17l-11 -49c-13,12 -27,24 -40,33 -13,10 -27,19 -41,25 -15,7 -30,12 -46,16 -17,3 -35,5 -55,5 -20,0 -39,-3 -57,-9 -17,-5 -33,-14 -46,-25 -13,-12 -23,-26 -31,-44 -8,-17 -12,-38 -12,-62 0,-20 6,-40 17,-59 12,-20 30,-37 55,-52 26,-14 59,-27 100,-36 40,-10 91,-14 150,-14l0 -41c0,-41 -9,-72 -26,-93 -18,-21 -43,-31 -77,-31 -23,0 -42,2 -57,8 -15,6 -28,12 -40,19 -11,7 -20,14 -28,19 -9,6 -17,9 -24,9 -7,0 -12,-2 -17,-5 -4,-3 -8,-7 -11,-12l-16 -29c29,-28 60,-49 93,-63 33,-14 70,-21 111,-21 29,0 55,5 78,15 22,9 41,23 57,40 15,17 27,38 35,63 8,24 12,51 12,80l0 335zm-238 -57c16,0 31,-2 44,-5 13,-3 26,-8 38,-14 12,-6 23,-13 34,-21 11,-9 21,-18 32,-29l0 -109c-43,0 -79,3 -108,9 -30,5 -54,12 -72,21 -19,8 -32,18 -41,30 -8,12 -12,25 -12,39 0,14 2,26 6,36 5,10 11,18 18,24 8,7 17,11 27,14 10,3 22,5 34,5zm514 211c-3,7 -7,13 -12,17 -4,4 -12,6 -21,6l-68 0 95 -204 -215 -496 79 0c8,0 14,2 18,6 5,4 8,9 10,13l140 334c3,7 6,15 8,23 2,7 4,15 6,23 2,-8 5,-16 7,-23 3,-8 5,-16 8,-24l136 -333c2,-5 6,-10 11,-13 5,-4 10,-6 16,-6l73 0 -291 677zm674 -591c-4,8 -11,12 -19,12 -6,0 -11,-2 -18,-6 -7,-4 -14,-8 -24,-13 -9,-4 -21,-9 -34,-13 -13,-4 -28,-5 -46,-5 -16,0 -30,1 -42,5 -12,4 -23,10 -32,17 -8,7 -15,15 -20,24 -4,9 -7,19 -7,29 0,14 4,25 12,34 8,9 18,17 31,23 12,7 27,12 43,17 16,5 33,11 50,16 17,6 33,12 49,19 17,7 31,16 44,26 12,10 23,23 31,38 7,15 11,33 11,54 0,24 -4,46 -13,66 -8,21 -21,39 -38,54 -17,14 -37,26 -62,35 -24,8 -52,13 -84,13 -37,0 -70,-6 -99,-18 -30,-11 -55,-26 -76,-45l22 -36c3,-4 6,-7 10,-10 3,-2 8,-4 15,-4 6,0 12,3 19,8 7,4 16,10 25,16 10,5 22,11 36,16 14,4 31,7 52,7 18,0 34,-3 47,-7 14,-5 25,-11 34,-19 9,-8 15,-17 20,-27 4,-11 6,-22 6,-33 0,-15 -4,-27 -12,-36 -7,-10 -18,-18 -30,-24 -13,-7 -28,-13 -44,-18 -16,-5 -33,-10 -50,-16 -17,-5 -34,-12 -50,-19 -16,-7 -31,-16 -44,-26 -12,-11 -22,-24 -30,-40 -8,-15 -12,-34 -12,-57 0,-20 4,-39 13,-57 8,-19 20,-35 36,-49 15,-14 35,-25 58,-33 23,-8 49,-13 79,-13 34,0 65,6 92,17 28,11 51,26 71,45l-20 33z"></path> <path class="fil1" d="M12937 6124c0,-9 2,-17 5,-25 3,-8 8,-15 14,-21 5,-6 12,-11 20,-14 8,-3 16,-5 25,-5 9,0 18,2 25,5 8,3 15,8 21,14 6,6 11,13 14,21 3,8 5,16 5,25 0,9 -2,18 -5,26 -3,8 -8,14 -14,20 -6,6 -13,11 -21,14 -7,3 -16,5 -25,5 -9,0 -17,-2 -25,-5 -8,-3 -15,-8 -20,-14 -6,-6 -11,-12 -14,-20 -3,-8 -5,-17 -5,-26z"></path> </g> </g> </g> </svg>