<?xml version="1.0" encoding="UTF-8"?>
<svg xmlns="http://www.w3.org/2000/svg" width="250" height="107" viewBox="0 0 250 107" fill="none">
  <g id="Ancient_Logo_Black 1" clip-path="url(#clip0_1068_30)">
    <path id="Vector" d="M132.363 20.4907L144.844 18.5113L132.363 16.4807L136.575 9.64708L129.731 13.8826L127.752 0.0820312L125.906 13.8826L118.932 9.64708L123.14 16.4807L110.659 18.5113L123.14 20.4907L118.932 27.2935L125.916 23.1469L127.752 45.8562L129.721 23.1058L136.575 27.2935L132.363 20.4907Z" fill="black"></path>
    <g id="Group">
      <path id="Vector_2" d="M2.42513 73.3821C4.40104 71.56 6.69145 70.1961 9.29296 69.2833C11.8945 68.374 14.496 67.9159 17.0975 67.9159C19.699 67.9159 22.133 68.2543 24.0815 68.9312C26.0335 69.6081 27.6334 70.5208 28.8811 71.6626C30.1289 72.8078 31.0519 74.1205 31.6536 75.6042C32.2518 77.0878 32.5526 78.6364 32.5526 80.2465V99.1339C32.5526 100.436 32.5766 101.633 32.6313 102.723C32.6825 103.817 32.7612 104.857 32.8671 105.844H26.6215C26.4642 103.971 26.3856 102.098 26.3856 100.224H26.2284C24.6661 102.617 22.8201 104.31 20.6869 105.298C18.5538 106.285 16.0822 106.781 13.2721 106.781C11.556 106.781 9.91513 106.545 8.35628 106.08C6.79401 105.612 5.43002 104.911 4.25746 103.975C3.08832 103.038 2.1619 101.879 1.48503 100.501C0.808161 99.1236 0.469727 97.5238 0.469727 95.7017C0.469727 93.3087 1.00302 91.3055 2.0696 89.6919C3.13618 88.0784 4.59247 86.7657 6.4419 85.7504C8.28791 84.7351 10.4484 84.0069 12.92 83.5659C15.3916 83.1249 18.0341 82.9027 20.8408 82.9027H25.9925V81.3405C25.9925 80.4038 25.8079 79.4671 25.4455 78.5304C25.0797 77.5937 24.5328 76.7494 23.808 75.9939C23.0799 75.2384 22.1706 74.6401 21.0766 74.1991C19.9827 73.7582 18.6837 73.5359 17.1727 73.5359C15.8189 73.5359 14.6361 73.6659 13.6208 73.9257C12.6055 74.1855 11.6825 74.5102 10.8484 74.8999C10.0143 75.2897 9.26219 75.7477 8.58532 76.2674C7.90845 76.787 7.25893 77.2827 6.63334 77.751L2.41829 73.3787L2.42513 73.3821ZM22.2492 88.0544C20.5844 88.0544 18.8785 88.1468 17.1351 88.3279C15.3916 88.5125 13.8054 88.8612 12.373 89.3808C10.9407 89.9005 9.77155 90.6286 8.86222 91.5653C7.94947 92.502 7.49481 93.6984 7.49481 95.1547C7.49481 97.2879 8.20928 98.8228 9.64164 99.7595C11.0706 100.696 13.0089 101.165 15.4566 101.165C17.3812 101.165 19.0187 100.84 20.3724 100.19C21.7261 99.5407 22.8167 98.6963 23.6508 97.6537C24.4815 96.6145 25.0831 95.4556 25.4455 94.1805C25.8079 92.9053 25.9925 91.6439 25.9925 90.3961V88.0544H22.2458H22.2492Z" fill="black"></path>
      <path id="Vector_3" d="M42.7773 68.856H49.8024V74.5547H49.9597C50.8451 72.5788 52.38 70.9789 54.5644 69.7551C56.7489 68.5346 59.2718 67.9193 62.1365 67.9193C63.9039 67.9193 65.6097 68.1928 67.2506 68.7398C68.8881 69.2867 70.3204 70.1311 71.5443 71.2763C72.7681 72.4215 73.7424 73.8915 74.4705 75.6862C75.1987 77.4809 75.5645 79.6039 75.5645 82.0481V105.855H68.5394V84.0001C68.5394 82.284 68.3069 80.814 67.8386 79.5902C67.3703 78.3698 66.7447 77.3784 65.9652 76.6229C65.1858 75.8708 64.2867 75.3239 63.2714 74.9854C62.2561 74.647 61.2032 74.4795 60.1093 74.4795C58.653 74.4795 57.2993 74.7154 56.0515 75.1837C54.8037 75.652 53.7098 76.3939 52.7731 77.4092C51.8364 78.4245 51.1083 79.7132 50.5887 81.2721C50.0691 82.8344 49.8093 84.6804 49.8093 86.8135V105.858H42.7842V68.8628L42.7773 68.856Z" fill="black"></path>
      <path id="Vector_4" d="M112.635 78.6911C111.333 77.3374 109.969 76.3119 108.536 75.6076C107.104 74.9034 105.401 74.5547 103.422 74.5547C101.443 74.5547 99.8189 74.9068 98.3866 75.6076C96.9542 76.3084 95.7577 77.2725 94.7971 78.4963C93.8331 79.7201 93.1049 81.1251 92.6127 82.7113C92.117 84.2975 91.8709 85.9521 91.8709 87.6682C91.8709 89.3843 92.1546 91.0115 92.7289 92.5465C93.2998 94.0814 94.1066 95.4214 95.1492 96.5666C96.1885 97.7119 97.4396 98.6109 98.8959 99.2604C100.352 99.9134 101.99 100.235 103.812 100.235C105.788 100.235 107.48 99.8826 108.885 99.1818C110.29 98.4776 111.589 97.452 112.789 96.0983L117.783 101.093C115.961 103.123 113.842 104.58 111.421 105.465C109.001 106.35 106.437 106.791 103.733 106.791C100.872 106.791 98.2567 106.323 95.8876 105.386C93.5186 104.45 91.4777 103.137 89.7616 101.445C88.0455 99.7561 86.7191 97.7255 85.7825 95.3565C84.8458 92.9909 84.3774 90.3757 84.3774 87.511C84.3774 84.6462 84.8458 82.0208 85.7825 79.6278C86.7191 77.2349 88.0318 75.1803 89.724 73.4608C91.4128 71.7447 93.4434 70.4046 95.8124 69.4406C98.178 68.48 100.821 67.998 103.733 67.998C106.437 67.998 109.028 68.48 111.5 69.4406C113.972 70.4046 116.118 71.8746 117.941 73.8505L112.632 78.6911H112.635Z" fill="black"></path>
      <path id="Vector_5" d="M124.34 68.856H131.365V105.851H124.34V68.856Z" fill="black"></path>
      <path id="Vector_6" d="M147.836 89.9312C147.836 91.5448 148.188 93.0147 148.889 94.3411C149.593 95.6675 150.516 96.7991 151.661 97.7357C152.806 98.6724 154.133 99.4006 155.64 99.9202C157.148 100.44 158.71 100.7 160.324 100.7C162.508 100.7 164.409 100.194 166.022 99.1784C167.636 98.163 169.116 96.823 170.47 95.1582L175.779 99.216C171.875 104.265 166.412 106.788 159.387 106.788C156.471 106.788 153.832 106.292 151.466 105.304C149.097 104.316 147.094 102.949 145.456 101.206C143.819 99.4621 142.554 97.4076 141.672 95.0385C140.787 92.6729 140.346 90.109 140.346 87.3502C140.346 84.5915 140.828 82.031 141.788 79.662C142.752 77.2963 144.079 75.2384 145.767 73.4949C147.46 71.7515 149.477 70.3875 151.818 69.3961C154.16 68.4082 156.71 67.9125 159.469 67.9125C162.747 67.9125 165.516 68.4868 167.783 69.6286C170.046 70.7738 171.906 72.2711 173.365 74.1171C174.822 75.9631 175.874 78.045 176.527 80.3628C177.177 82.6771 177.502 85.0325 177.502 87.4254V89.9244H147.843L147.836 89.9312ZM170.001 84.3112C169.95 82.7489 169.701 81.32 169.26 80.0175C168.819 78.7185 168.152 77.5869 167.27 76.6229C166.385 75.6623 165.28 74.9068 163.954 74.3598C162.628 73.8129 161.079 73.5394 159.312 73.5394C157.544 73.5394 156.02 73.8641 154.591 74.5137C153.158 75.1666 151.948 76.011 150.96 77.0502C149.972 78.0929 149.203 79.2483 148.656 80.5234C148.109 81.7985 147.836 83.06 147.836 84.3077H170.001V84.3112Z" fill="black"></path>
      <path id="Vector_7" d="M185.925 68.856H192.95V74.5547H193.107C193.993 72.5788 195.528 70.9789 197.712 69.7551C199.897 68.5346 202.419 67.9193 205.284 67.9193C207.052 67.9193 208.757 68.1928 210.398 68.7398C212.036 69.2867 213.468 70.1311 214.692 71.2763C215.916 72.4215 216.89 73.8915 217.618 75.6862C218.346 77.4809 218.712 79.6039 218.712 82.0481V105.855H211.687V84.0001C211.687 82.284 211.455 80.814 210.986 79.5902C210.518 78.3698 209.892 77.3784 209.113 76.6229C208.334 75.8708 207.434 75.3239 206.419 74.9854C205.404 74.647 204.351 74.4795 203.257 74.4795C201.801 74.4795 200.447 74.7154 199.199 75.1837C197.951 75.652 196.858 76.3939 195.921 77.4092C194.984 78.4245 194.256 79.7132 193.736 81.2721C193.217 82.8344 192.957 84.6804 192.957 86.8135V105.858H185.932V68.8628L185.925 68.856Z" fill="black"></path>
      <path id="Vector_8" d="M249.147 74.9444H239.08V91.726C239.08 92.7686 239.104 93.7942 239.158 94.8095C239.21 95.8248 239.404 96.7341 239.743 97.5409C240.081 98.3477 240.601 98.9972 241.305 99.4929C242.006 99.9886 243.035 100.235 244.389 100.235C245.219 100.235 246.081 100.156 246.966 99.9988C247.852 99.8416 248.655 99.5578 249.387 99.1408V105.54C248.552 106.009 247.476 106.333 246.146 106.515C244.819 106.696 243.79 106.788 243.062 106.788C240.355 106.788 238.263 106.409 236.779 105.656C235.295 104.904 234.201 103.927 233.501 102.73C232.8 101.534 232.379 100.194 232.253 98.71C232.123 97.2264 232.058 95.7325 232.058 94.2215V74.941H223.939V68.8526H232.058V58.4705H239.083V68.8526H249.151V74.941L249.147 74.9444Z" fill="black"></path>
    </g>
  </g>
  <defs>
    <clipPath id="clip0_1068_30">
      <rect width="249.211" height="107" fill="white" transform="translate(0.394531)"></rect>
    </clipPath>
  </defs>
</svg>
