<?xml version="1.0" encoding="UTF-8" standalone="no"?>
<svg
   xmlns:dc="http://purl.org/dc/elements/1.1/"
   xmlns:cc="http://creativecommons.org/ns#"
   xmlns:rdf="http://www.w3.org/1999/02/22-rdf-syntax-ns#"
   xmlns:svg="http://www.w3.org/2000/svg"
   xmlns="http://www.w3.org/2000/svg"
   xmlns:sodipodi="http://sodipodi.sourceforge.net/DTD/sodipodi-0.dtd"
   xmlns:inkscape="http://www.inkscape.org/namespaces/inkscape"
   version="1.1"
   id="Layer_1"
   x="0px"
   y="0px"
   width="747"
   height="351"
   viewBox="0 0 747 351"
   enable-background="new 0 0 612 792"
   xml:space="preserve">
<path
   style="fill:#ffffff"
   d="m 706.27979,178.98443 c -79.63766,-8.02409 -153.78544,-5.73503 -247.73314,4.87285 h -0.008 c -113.2215,12.51131 -246.82414,48.27953 -321.36031,81.57138 -0.12396,0.41318 28.22342,30.09929 28.22342,30.09929 0,0 -8.53644,42.95217 -9.04053,43.06235 238.97633,-99.87556 460.85224,-104.30768 555.92656,-95.12391 l -16.60461,-35.98308 10.59687,-28.49888"
   id="path3"
   clip-path="none" /><path
   style="fill:#ffffff"
   d="m 706.27979,178.98443 1.24507,-12.34603 c -32.65003,-3.29172 -64.43238,-4.87285 -96.9557,-4.87009 -47.80849,0 -97.19535,3.41017 -153.41357,9.75672 l 1.39381,12.33225 v -12.41213 h -0.008 c -0.51786,0 -0.85392,0.0193 -1.36352,0.0771 -57.35586,6.34105 -119.5405,18.51354 -176.92391,33.31114 -57.39443,14.81138 -109.88846,32.19277 -148.1358,49.26291 -3.02728,1.35249 -5.3549,3.81509 -6.53662,6.91399 -0.38564,0.99991 -0.81811,2.60032 -0.8126,4.4211 0.0165,1.69131 0.28097,2.68296 0.48481,3.43496 0.43522,1.4434 0.77404,2.00534 1.01369,2.48739 0.47929,0.86769 0.70517,1.15141 0.90074,1.43238 0.3581,0.49583 0.5399,0.70793 0.73548,0.94758 0.35809,0.42696 0.68313,0.79607 1.07979,1.23956 1.44891,1.6252 3.79306,4.14289 6.61375,7.15089 8.42626,8.98268 20.81911,21.95951 20.83289,21.97328 l 8.97442,-8.5695 -12.17249,-2.41852 c 0,0.006 -0.52888,2.67194 -1.33597,6.69088 -1.20926,6.02702 -3.03555,15.07581 -4.60015,22.58755 -0.77955,3.75174 -1.49849,7.12885 -2.02186,9.48677 -0.26169,1.1707 -0.48205,2.10726 -0.60326,2.58931 l -0.0634,0.2424 -0.006,0.0193 7.3079,2.06869 -7.12059,-2.62787 c -0.17078,0.47379 -0.17905,0.54266 -0.18731,0.55918 l 7.3079,2.06869 -7.12059,-2.62787 10.93293,4.03271 -10.29111,-5.46509 c -0.43798,0.84841 -0.53715,1.1707 -0.64182,1.43238 l 10.93293,4.03271 -10.29111,-5.46509 10.83101,5.75157 -9.47851,-7.77618 c -0.81811,1.01368 -1.10734,1.58663 -1.3525,2.02461 l 10.83101,5.75157 -9.47851,-7.77618 9.55839,7.84229 -7.57234,-9.77325 c -1.00267,0.7823 -1.56185,1.42136 -1.98605,1.93096 l 9.55839,7.84229 -7.57234,-9.77325 7.59162,9.79528 -2.64991,-12.10638 c -2.43504,0.55367 -3.94455,1.55359 -4.94171,2.3111 l 7.59162,9.79528 -2.64991,-12.10638 2.65267,12.12291 4.7847,11.45079 c 187.42437,-78.35127 364.54661,-97.40746 476.49274,-97.39368 29.32526,0 54.16881,1.30842 73.45638,3.17052 4.41559,0.42696 8.74304,-1.55358 11.31031,-5.16759 2.56727,-3.61401 3.008,-8.3574 1.14866,-12.38459 l -14.43951,-31.29479 8.79813,-23.66184 c 1.33872,-3.61401 0.93931,-7.61641 -1.09908,-10.8861 -2.03839,-3.27244 -5.45131,-5.39897 -9.28844,-5.78462 l -1.24783,12.34603 -11.63259,-4.32469 -10.59411,28.49888 c -1.15693,3.10717 -1.02746,6.51183 0.3636,9.52259 l 16.5991,35.98307 11.27174,-5.19789 1.19273,-12.35429 c -20.19933,-1.95024 -45.7756,-3.28346 -75.84184,-3.28346 -114.67592,0.0138 -294.78137,19.39224 -486.06215,99.31087 -5.90858,2.47086 -8.97718,9.0791 -7.05173,15.18325 1.92821,6.1069 8.23069,9.75947 14.48634,8.39045 2.47912,-0.56194 4.0024,-1.58664 5.00507,-2.35242 1.00267,-0.79331 1.56185,-1.43513 1.98605,-1.95299 0.81536,-1.02195 1.1101,-1.60592 1.36352,-2.06318 0.45175,-0.87596 0.57846,-1.25885 0.71068,-1.60041 0.22587,-0.62254 0.30851,-0.9283 0.40492,-1.25334 0.16528,-0.59499 0.29474,-1.11836 0.44624,-1.74916 0.55092,-2.29456 1.3222,-5.88929 2.2257,-10.19745 2.69674,-12.86389 6.41542,-31.57575 6.42093,-31.59779 0.78506,-3.94731 -0.4187,-8.07918 -3.19807,-10.99077 -0.003,-0.003 -1.75742,-1.84006 -4.39631,-4.61117 -3.96108,-4.15941 -9.90547,-10.41782 -14.83341,-15.65703 -2.46259,-2.61685 -4.67728,-4.98579 -6.22535,-6.67435 -0.77128,-0.83739 -1.38555,-1.51777 -1.71886,-1.8979 l -0.1818,-0.20935 -0.0276,-0.033 -1.82628,1.5343 1.85934,-1.49574 -0.0331,-0.0386 -1.82628,1.5343 1.85934,-1.49574 -7.39605,5.94163 7.80924,-5.3797 c -0.27546,-0.39666 -0.36085,-0.49307 -0.41319,-0.56193 l -7.39605,5.94163 7.80924,-5.3797 -9.75673,6.72393 10.44262,-5.60006 c -0.34983,-0.64457 -0.5399,-0.90901 -0.68589,-1.12387 l -9.75673,6.72393 10.44262,-5.60006 -10.80897,5.79564 11.49761,-4.2696 c -0.28647,-0.76577 -0.51235,-1.18998 -0.68864,-1.52604 l -10.80897,5.79564 11.49761,-4.2696 -11.58301,4.30265 12.04027,-2.7711 c -0.15425,-0.66661 -0.31677,-1.14315 -0.45726,-1.53155 l -11.58301,4.30265 12.04027,-2.7711 -12.07057,2.77661 h 12.38459 c -0.006,-1.24782 -0.16527,-2.10725 -0.31402,-2.77661 l -12.07057,2.77661 h 12.38459 -12.40111 l 11.59127,4.41559 c 0.38564,-0.99715 0.81811,-2.59756 0.80984,-4.41559 h -12.40111 l 11.59127,4.41559 -11.59678,-4.41834 5.06016,11.32958 c 36.28884,-16.21896 87.86834,-33.36898 144.21328,-47.89112 56.3587,-14.53867 117.5875,-26.50732 173.45038,-32.67758 l -1.36076,-12.33226 v 12.40939 h 0.008 c 0.51511,0 0.87596,-0.022 1.39107,-0.0799 55.60119,-6.27768 104.01018,-9.59971 150.63144,-9.59971 31.7245,0 62.62538,1.53706 94.46557,4.74339 l 1.24231,-12.34603 -11.63259,-4.32469 11.63259,4.32469"
   id="path5"
   clip-path="none" /><path
   style="fill:#ffffff"
   d="m 724.35535,144.43649 c -5.58354,0 -10.30764,4.27786 -10.30764,10.09829 0,5.87276 4.7241,10.14787 10.30764,10.14787 5.52017,0 10.225,-4.27511 10.225,-10.14787 0,-5.82043 -4.70483,-10.09829 -10.225,-10.09829 m 0,18.57138 c -4.64698,0 -8.25548,-3.59473 -8.25548,-8.47309 0,-4.81225 3.61125,-8.41524 8.25548,-8.41524 4.5726,0 8.20589,3.60299 8.20589,8.41524 0,4.87836 -3.63329,8.47309 -8.20589,8.47309 z"
   id="path7"
   clip-path="none" /><path
   style="fill:#ffffff"
   d="m 724.35535,144.43649 v -12.40938 c -5.97469,0 -11.63535,2.29732 -15.82507,6.30799 -2.09623,2.00533 -3.83437,4.4514 -5.03812,7.21975 -1.20375,2.76284 -1.85659,5.84522 -1.85383,8.97993 -0.003,3.13196 0.64181,6.21709 1.84281,8.98544 1.79874,4.16492 4.79848,7.59438 8.43728,9.93301 3.6388,2.34691 7.96073,3.64156 12.43693,3.64156 5.97743,0 11.63534,-2.32487 15.80578,-6.35757 2.08797,-2.01635 3.81233,-4.47068 4.9968,-7.23904 1.19274,-2.76284 1.83455,-5.83695 1.8318,-8.9634 0.003,-3.1292 -0.64733,-6.20331 -1.84281,-8.95789 -3.6085,-8.31884 -11.83093,-13.55254 -20.79433,-13.54978 v 24.82152 -2.08247 l -1.42687,1.47921 c 0.43522,0.4187 0.96961,0.6005 1.42687,0.60326 v -2.08247 l -1.42687,1.47921 1.75191,-1.81802 -2.31109,0.99991 c 0.14048,0.32229 0.34432,0.60601 0.55918,0.81811 l 1.75191,-1.81802 -2.31109,0.99991 2.06593,-0.89248 h -2.26426 c -0.003,0.21761 0.0578,0.57571 0.19833,0.89248 l 2.06593,-0.89248 h -2.26426 2.1348 l -1.95024,-0.83739 c -0.13498,0.30851 -0.18731,0.64732 -0.18456,0.83739 h 2.1348 l -1.95024,-0.83739 2.23396,0.95859 -1.32771,-2.04665 c -0.35258,0.22587 -0.69966,0.61152 -0.9035,1.08806 l 2.23397,0.95859 -1.32771,-2.04665 1.09357,1.68305 v -2.01911 c -0.33882,0 -0.74374,0.10467 -1.09357,0.33606 l 1.09357,1.68305 v -2.01911 1.98881 l 1.34699,-1.40208 c -0.43798,-0.42696 -0.96135,-0.58673 -1.34699,-0.58673 v 1.98881 l 1.34699,-1.40208 -1.74365,1.80975 2.30558,-0.9944 c -0.13773,-0.31953 -0.34432,-0.60601 -0.56193,-0.81535 l -1.74365,1.80975 2.30558,-0.9944 -1.98881,0.85943 h 2.18163 c 0.003,-0.19833 -0.0551,-0.54265 -0.19282,-0.85943 l -1.98881,0.85943 h 2.18163 -2.30834 l 2.1045,0.91452 c 0.14599,-0.32504 0.2066,-0.68864 0.20384,-0.91452 h -2.30834 l 2.1045,0.91452 -2.23121,-0.96961 1.31945,2.05767 c 0.33881,-0.2121 0.6914,-0.58948 0.90901,-1.08806 l -2.23121,-0.96961 1.31944,2.05767 -0.98889,-1.54532 v 1.85659 c 0.28647,0 0.65559,-0.0909 0.98889,-0.31127 l -0.98889,-1.54532 v 1.85659 -12.41214 m 0.006,18.57138 v -12.40938 4.23378 l 2.98045,-2.93087 c -0.80709,-0.85943 -2.08797,-1.32771 -2.98045,-1.30291 v 4.23378 l 2.98045,-2.93087 -2.6802,2.63338 h 3.85365 c 0.0248,-0.62804 -0.33055,-1.807 -1.1762,-2.63338 l -2.68021,2.63338 h 3.85366 -3.93354 l 2.7408,2.705 c 0.83464,-0.81536 1.21202,-1.99432 1.19274,-2.705 h -3.93354 l 2.7408,2.705 -2.96392,-2.92537 v 4.21451 c 0.90625,0.0248 2.1651,-0.44349 2.96392,-1.28914 l -2.96392,-2.92537 v 4.21451 -4.27511 l -3.02729,2.9777 c 0.78506,0.82638 2.02737,1.31669 3.02729,1.29741 v -4.27511 l -3.02729,2.9777 2.73806,-2.69673 h -3.90875 c -0.022,0.73272 0.3636,1.89791 1.17896,2.69673 l 2.73805,-2.69673 h -3.91701 3.83988 l -2.67745,-2.62511 c -0.82637,0.80984 -1.18722,1.97227 -1.16243,2.62511 h 3.83988 l -2.67745,-2.62511 3.04106,2.98321 v -4.29439 c -0.98339,-0.022 -2.24774,0.47103 -3.04106,1.31118 l 3.04106,2.98321 v -4.29439 24.81876 c 5.55323,0.022 10.92191,-2.26702 14.67364,-6.12343 3.79031,-3.82887 5.96642,-9.22784 5.93888,-14.75904 0.0248,-5.54497 -2.17888,-10.9164 -5.95816,-14.72047 -3.74072,-3.83163 -9.09011,-6.12619 -14.65436,-6.10415 -5.55324,-0.0248 -10.93569,2.24498 -14.7012,6.09588 -3.80132,3.81785 -5.9857,9.20856 -5.96366,14.72874 -0.0248,5.50641 2.13204,10.92191 5.94714,14.7673 3.77102,3.87294 9.17826,6.14272 14.71772,6.11517 v -12.40938 z"
   id="path9"
   clip-path="none" /><path
   style="fill:#ffffff"
   d="m 728.99957,152.03362 c 0,-2.31109 -1.36627,-3.31927 -4.10708,-3.31927 h -4.45691 v 11.69319 h 1.77395 v -5.07944 h 2.04114 l 3.07411,5.07944 h 1.98055 l -3.32754,-5.15657 c 1.72437,-0.2121 3.02178,-1.12662 3.02178,-3.21735 m -6.7928,1.79599 v -3.6085 h 2.41302 c 1.24231,0 2.55074,0.26995 2.55074,1.7161 0,1.79599 -1.34424,1.8924 -2.84548,1.8924 h -2.11828 z"
   id="path11"
   clip-path="none" /><path
   style="fill:#ffffff"
   d="m 728.99957,152.03362 h 12.40938 c 0,-1.78772 -0.25342,-3.90875 -1.17345,-6.17577 -0.67763,-1.6858 -1.76569,-3.40466 -3.13747,-4.79847 -1.02195,-1.0495 -2.17336,-1.91168 -3.31927,-2.56176 -1.72436,-0.98063 -3.39364,-1.50676 -4.86734,-1.80701 -1.48196,-0.30025 -2.80141,-0.38289 -4.02169,-0.38564 h -4.45691 c -3.27244,0 -6.46775,1.3222 -8.77884,3.63329 -2.31109,2.31109 -3.63329,5.50916 -3.63329,8.77609 v 11.69319 c 0,3.26694 1.3222,6.46225 3.63329,8.77334 2.31109,2.31109 5.5064,3.63605 8.77884,3.63605 h 1.77395 c 3.27244,0 6.465,-1.32496 8.77885,-3.63605 2.31109,-2.31109 3.63054,-5.5064 3.63054,-8.77334 v -5.07944 h -12.40939 v 12.40938 h 2.04115 V 155.3281 l -10.61615,6.42643 3.07411,5.07945 c 2.25324,3.72419 6.26116,5.98295 10.61615,5.98295 h 1.98054 c 4.55057,0 8.71549,-2.47362 10.89437,-6.47051 2.17887,-3.9969 2.00257,-8.83669 -0.46553,-12.66556 l -3.32478,-5.15657 -10.43159,6.72668 1.50675,12.31573 c 1.31945,-0.16252 2.77662,-0.47379 4.36877,-1.11836 1.18722,-0.48205 2.45157,-1.16243 3.6691,-2.1045 1.83455,-1.39933 3.50658,-3.45975 4.50649,-5.71575 1.0192,-2.25601 1.38831,-4.57536 1.3828,-6.59447 h -24.81876 8.68794 l -8.08194,-3.13196 c -0.48756,1.25609 -0.61151,2.37996 -0.60876,3.13196 h 8.68795 l -8.08194,-3.13196 9.09011,3.52311 -7.45665,-6.26942 c -0.69966,0.82637 -1.26986,1.80976 -1.63346,2.74631 l 9.09011,3.52311 -7.45665,-6.26942 7.29689,6.1372 -3.95558,-8.69345 c -1.00818,0.44899 -2.29181,1.29465 -3.34406,2.55625 l 7.29688,6.1372 -3.95557,-8.69345 3.25315,7.14813 -0.95584,-7.81474 c -0.50959,0.0661 -1.27261,0.20384 -2.29731,0.66661 l 3.25315,7.14813 -0.95584,-7.81474 c -4.24205,0.51786 -7.91941,3.18429 -9.73193,7.05172 -1.81251,3.86743 -1.50675,8.39872 0.8071,11.99069 l 3.32477,5.15657 10.4316,-6.72393 v -12.40938 h -1.98055 v 12.40938 l 10.61616,-6.42643 -3.07687,-5.07945 c -2.25049,-3.72419 -6.25841,-5.98294 -10.6134,-5.98294 h -2.04114 c -3.26693,0 -6.46224,1.3222 -8.77334,3.63329 -2.31384,2.31109 -3.63604,5.50916 -3.63604,8.77609 v 5.07944 h 12.40938 v -12.40938 h -1.77395 v 12.40938 h 12.40938 v -11.69319 h -12.40938 v 12.40939 h 4.45691 v -5.14831 l -1.2616,4.96099 c 0.80159,0.19558 1.18998,0.18456 1.2616,0.18732 v -5.14831 l -1.2616,4.96099 2.15684,-8.47859 -4.5423,7.45664 c 0.95308,0.58122 1.79047,0.87045 2.38546,1.02195 l 2.15684,-8.47859 -4.5423,7.45664 5.10699,-8.37943 -7.24455,6.6165 c 0.66386,0.72997 1.42688,1.33047 2.13756,1.76293 l 5.10699,-8.37943 -7.24455,6.6165 7.22802,-6.60272 -9.31874,3.03003 c 0.35534,1.12112 1.07979,2.47913 2.09072,3.57269 l 7.22802,-6.60272 -9.31874,3.03003 7.83127,-2.54523 h -8.25548 c 0.003,0.5399 0.0606,1.4131 0.42421,2.54523 l 7.83127,-2.54523 h -8.25548 12.41765 m -6.7928,1.79599 h 12.40939 v -3.6085 h -12.40939 v 12.41214 h 2.41302 v -6.59447 l -1.04124,6.50081 c 0.60326,0.0937 0.90626,0.0909 1.04124,0.0937 v -6.59447 l -1.04124,6.50081 1.48748,-9.27743 -3.44323,8.73478 c 0.86494,0.33881 1.50125,0.46828 1.95575,0.54265 l 1.48748,-9.27743 -3.44323,8.73478 3.87019,-9.81457 -6.13996,8.57776 c 0.84566,0.6005 1.62245,0.98339 2.26702,1.23681 l 3.87018,-9.81457 -6.13996,8.57776 6.42368,-8.97993 -9.89169,4.89764 c 0.83739,1.72437 2.21193,3.20633 3.46801,4.08229 l 6.42368,-8.97993 -9.89169,4.89764 9.57216,-4.74063 h -10.69878 c -0.011,1.25334 0.2727,3.02453 1.12662,4.74063 l 9.57216,-4.74063 h -10.69878 9.73193 l -9.48402,-2.16234 c -0.19558,0.88422 -0.24791,1.61143 -0.24791,2.16234 h 9.73193 l -9.48402,-2.16234 10.63818,2.42678 -7.8533,-7.5503 c -1.49298,1.51502 -2.46811,3.59472 -2.78764,5.12352 l 10.63819,2.42678 -7.85331,-7.5503 7.87535,7.57234 -4.53404,-9.94955 c -0.99716,0.45176 -2.24498,1.2313 -3.34406,2.37721 l 7.87534,7.57234 -4.53404,-9.94955 3.93905,8.64663 -1.01093,-9.473 c -0.4545,0.0634 -1.40208,0.1515 -2.92812,0.82637 l 3.93905,8.64663 -1.01093,-9.473 0.56469,5.29706 -0.17354,-5.3246 -0.39115,0.0275 0.56469,5.29706 -0.17354,-5.3246 0.0303,0.95308 -0.0193,-0.95308 h -0.011 l 0.0303,0.95308 -0.0193,-0.95308 h -2.25875 v 12.40938 h 12.40938 -12.39837 v 12.40938 h 2.11828 c 0.51235,-0.003 1.27812,0.006 2.43504,-0.11569 0.86494,-0.10192 1.97779,-0.26995 3.38263,-0.74649 1.04398,-0.36085 2.26702,-0.91177 3.5176,-1.78773 1.88688,-1.28088 3.70766,-3.42394 4.66901,-5.65239 0.9944,-2.23397 1.25058,-4.3302 1.25058,-5.99948 0,-1.11285 -0.12671,-2.34966 -0.46277,-3.63329 -0.55918,-2.24774 -1.88964,-4.58362 -3.53413,-6.20882 -1.22303,-1.23681 -2.54247,-2.09899 -3.71868,-2.68021 -1.77946,-0.87596 -3.24214,-1.19824 -4.41008,-1.39106 -1.17345,-0.1818 -2.08797,-0.20935 -2.83446,-0.2121 h -2.41302 c -3.26693,0 -6.46224,1.32495 -8.77333,3.63604 -2.31385,2.31109 -3.63605,5.50641 -3.63605,8.77334 v 3.6085 c 0,3.26693 1.3222,6.465 3.63605,8.77609 2.31109,2.31109 5.5064,3.63329 8.77333,3.63329 v -12.40938 z"
   id="path13"
   clip-path="none" /><path
   style="fill:#ffffff"
   d="m 315.57569,56.83534 -0.0854,117.33409 c 0,6.57518 -3.31927,12.70136 -4.31643,14.36513 l 5.80665,6.14547 69.86441,-13.03743 2.32762,-41.52254 -7.81198,-4.66075 c 0,0 -14.88024,20.29575 -15.93249,21.76119 -1.22304,0.23689 -10.51974,2.20641 -17.38691,3.51759 -0.0441,-20.00926 -0.30301,-107.205491 -0.30301,-107.205491 0,-3.569936 1.98606,-11.706965 3.4873,-13.547024 l -6.77902,-3.743474 -35.08508,6.577937 2.26426,3.319268 c 2.77111,3.18154 3.95007,6.379608 3.95007,10.696034"
   id="path15"
   clip-path="none" /><path
   style="fill:#ffffff"
   d="m 315.57569,56.83534 -12.40938,-0.0083 -0.0854,117.331334 v 0.011 c 0.0193,1.19273 -0.38288,3.06584 -1.00266,4.68829 -0.59775,1.61694 -1.36352,2.99423 -1.55083,3.29723 -2.85099,4.75716 -2.18438,10.87508 1.62796,14.90503 l 5.8094,6.14547 c 2.90884,3.07411 7.13437,4.4514 11.29378,3.67461 l 69.86717,-13.04018 c 5.63587,-1.04949 9.79253,-5.77911 10.11206,-11.50312 l 2.32762,-41.52254 c 0.26168,-4.62219 -2.05492,-8.97718 -6.02702,-11.34887 l -7.81199,-4.66351 c -5.49814,-3.2807 -12.58017,-1.84556 -16.36771,3.31927 0,0 -3.72144,5.07394 -7.5751,10.33519 -1.9282,2.62787 -3.88671,5.30532 -5.43478,7.41808 -0.77129,1.05501 -1.44065,1.96953 -1.953,2.67194 -0.52062,0.71069 -0.85392,1.16519 -1.04674,1.43514 l 10.08176,7.23904 -2.36894,-12.18076 c -0.49307,0.0937 -1.24231,0.25067 -2.41576,0.49307 -3.44598,0.71619 -9.93027,2.06043 -14.92707,3.01351 l 2.32762,12.19177 12.40938,-0.0303 c -0.0441,-20.02028 -0.30025,-107.208246 -0.30025,-107.211001 v 0.03581 h 0.003 c 0.008,-0.220366 0.0937,-1.010931 0.26169,-1.90066 0.23689,-1.34699 0.63906,-3.008001 1.00267,-4.151152 0.17354,-0.564689 0.34432,-1.008176 0.39115,-1.110096 l -0.0937,-0.04132 0.0909,0.04407 0.003,-0.0028 -0.0937,-0.04132 0.0909,0.04407 -6.6468,-3.178785 5.68545,4.630448 c 0.80985,-1.030213 0.89249,-1.355253 0.96135,-1.451663 l -6.6468,-3.178785 5.68545,4.630448 c 2.32487,-2.85099 3.26418,-6.583446 2.56452,-10.197454 -0.69967,-3.614009 -2.96393,-6.726685 -6.18679,-8.506143 l -6.77902,-3.743474 c -2.50942,-1.385554 -5.46509,-1.862096 -8.28302,-1.333217 l -35.08509,6.577937 c -4.11809,0.771282 -7.56683,3.567181 -9.17275,7.437366 -1.60867,3.870184 -1.15417,8.285776 1.20651,11.748283 l 2.26151,3.319269 c 0.29199,0.42696 0.56469,0.779546 0.9035,1.170696 0.61152,0.713436 0.66386,0.914521 0.72997,1.063268 0.0496,0.151502 0.15976,0.42696 0.16802,1.4737 v -0.0083 l 12.39837,0.0083 h 12.40938 c 0.008,-3.269686 -0.46828,-6.751475 -1.70508,-10.073498 -1.21477,-3.327533 -3.14022,-6.313498 -5.30808,-8.784356 l -9.34904,8.16182 10.25254,-6.988369 -2.26151,-3.322023 -10.2553,6.991124 2.2863,12.197279 30.70255,-5.757072 2.87854,1.589393 5.99947,-10.864063 -9.61899,-7.842289 c -1.14866,1.440645 -1.64724,2.435049 -2.11552,3.366097 -0.77128,1.597656 -1.25333,2.974946 -1.72161,4.432119 -0.67763,2.165099 -1.2313,4.407328 -1.66377,6.646801 -0.21485,1.121114 -0.39666,2.233964 -0.53439,3.360587 -0.13497,1.134887 -0.23689,2.256001 -0.23964,3.583709 v 0.03856 c 0,0.01377 0.0165,5.448559 0.0441,13.93542 0.0716,25.460582 0.22863,78.263127 0.26168,93.259057 0.008,3.68012 1.67203,7.20047 4.51201,9.54462 2.83997,2.34139 6.61099,3.30825 10.22775,2.61685 3.53688,-0.67763 7.61641,-1.504 10.977,-2.1954 1.6803,-0.34432 3.17879,-0.65559 4.32745,-0.89524 1.12662,-0.23414 1.99707,-0.41319 2.11827,-0.43522 3.11267,-0.60601 5.86175,-2.36619 7.71007,-4.94172 0.0689,-0.0964 0.43247,-0.59499 0.92829,-1.27537 1.76844,-2.41577 5.50365,-7.52 8.79538,-12.00997 3.29172,-4.49272 6.1372,-8.36841 6.13995,-8.37667 l -10.01014,-7.33821 -6.36032,10.65747 1.36076,0.80985 -1.36076,24.3009 -53.6482,10.0129 -1.16794,-1.23129 -9.01299,8.52542 10.6437,6.37961 c 0.80984,-1.36352 2.20366,-3.88121 3.51484,-7.38228 1.28914,-3.50107 2.54799,-7.98002 2.57002,-13.36246 v 0.008 l 0.0826,-117.334086 v -0.0083 h -12.40938"
   id="path17"
   clip-path="none" /><path
   style="fill:#ffffff"
   d="m 580.66819,163.00787 7.64947,-43.68213 -6.96357,-6.15098 c 0,0 -14.83893,18.73115 -16.25203,20.71995 -1.66927,-0.0799 -15.91871,0.93381 -22.78588,1.24783 -0.0496,-17.31529 0.13222,-105.282801 0.13222,-105.282801 0.91176,-8.861483 3.74898,-9.968824 3.74898,-9.968824 l -4.78195,-5.365922 -38.80101,2.313847 2.91159,4.057496 c 2.88404,3.977614 4.10157,7.558568 4.10157,11.96865 l -0.24516,109.130944 c 0,8.66591 -6.63303,15.32648 -10.05422,18.05903 l 5.48988,6.96909 75.85011,-4.01618"
   id="path19"
   clip-path="none" /><path
   style="fill:#ffffff"
   d="m 580.66819,163.00787 12.22483,2.14031 7.64947,-43.68213 c 0.74649,-4.25032 -0.77679,-8.58878 -4.01067,-11.44253 l -6.96358,-6.15097 c -2.55625,-2.256 -5.91684,-3.36059 -9.31599,-3.06034 -3.39088,0.303 -6.50631,1.9833 -8.62734,4.65524 -0.003,0.006 -3.71593,4.6938 -7.61641,9.64103 -1.94749,2.47361 -3.94456,5.01058 -5.55599,7.071 -0.80434,1.03297 -1.51227,1.94474 -2.08246,2.68297 -0.28648,0.37186 -0.53439,0.69966 -0.75476,0.99164 -0.22587,0.30025 -0.40217,0.53164 -0.63355,0.85943 l 10.12032,7.18119 0.58948,-12.39561 c -0.37186,-0.0165 -0.606,-0.0165 -0.82912,-0.0193 -0.68039,0.003 -1.23406,0.0248 -1.94474,0.0551 -2.40199,0.10192 -6.21984,0.33882 -10.25254,0.58673 -4.00792,0.24516 -8.19763,0.50133 -10.92191,0.62529 l 0.57019,12.39561 12.40939,-0.0331 c -0.006,-1.9282 -0.008,-4.76267 -0.008,-8.27476 0,-13.83074 0.0358,-38.076553 0.0689,-58.85435 0.0193,-10.38752 0.0386,-19.912858 0.0523,-26.837871 0.011,-6.927769 0.022,-11.24695 0.022,-11.257969 l -12.41214,-0.02479 12.34328,1.267107 c 0.16527,-1.589393 0.3939,-2.589305 0.53714,-3.085129 l 0.11845,-0.358096 -0.003,-0.0028 -5.2337,-2.553496 3.97761,4.159416 c 0.81536,-0.779546 1.19274,-1.459928 1.25609,-1.60592 l -5.2337,-2.553496 3.97761,4.159416 -7.30239,-7.627432 3.82611,9.792531 c 1.43514,-0.556425 2.67195,-1.382799 3.47904,-2.165099 l -7.30239,-7.627432 3.82611,9.792531 c 3.78755,-1.479209 6.59997,-4.713086 7.55306,-8.665908 0.94757,-3.955577 -0.0964,-8.112238 -2.80417,-11.150539 l -4.77644,-5.365922 c -2.53697,-2.845481 -6.20056,-4.3605 -10.01014,-4.1318699 l -38.80377,2.3110926 c -4.50374,0.2699488 -8.52542,2.9804554 -10.46465,7.0544793 -1.93922,4.076778 -1.50951,8.905557 1.12387,12.571902 l 2.91435,4.057497 0.0358,0.04683 c 0.88973,1.23956 1.2368,1.991561 1.43513,2.55625 0.18456,0.572952 0.29199,1.057758 0.30025,2.12929 v -0.0303 l -0.24791,109.133704 v 0.0275 c 0,0.57846 -0.10192,1.17621 -0.3636,1.91168 -0.38014,1.08531 -1.18447,2.43229 -2.18439,3.63605 -0.98063,1.2065 -2.1348,2.25875 -2.83721,2.81518 -5.33012,4.25307 -6.22535,12.02098 -2.00809,17.37589 l 5.48988,6.96908 c 2.49014,3.16226 6.38787,4.92519 10.4068,4.71309 l 75.85286,-4.01618 c 5.76259,-0.30576 10.57208,-4.56709 11.56373,-10.25254 l -12.21932,-2.14031 -0.65559,-12.39286 -69.42918,3.67737 -1.50951,-1.91719 -9.74846,7.67977 7.74863,9.69612 c 2.47086,-1.99432 5.79013,-5.05741 8.85047,-9.55839 1.51777,-2.25049 2.95842,-4.87561 4.05199,-7.91942 1.09081,-3.0383 1.81526,-6.52009 1.81526,-10.27734 v 0.0276 l 0.24792,-109.130948 v -0.02755 c 0.008,-3.338551 -0.49583,-6.847886 -1.63898,-10.1644 -1.13489,-3.322023 -2.83722,-6.352061 -4.82602,-9.090114 l 0.0331,0.04683 -2.91434,-4.0574959 -10.07901,7.2390359 0.73823,12.387346 32.79878,-1.955752 0.77955,0.875957 9.2664,-8.255476 -4.51751,-11.5609722 c -1.25333,0.484806 -2.705,1.3084254 -4.06025,2.4846312 -2.05216,1.765686 -3.78755,4.236544 -5.01609,7.159153 -1.23956,2.941891 -2.06043,6.36308 -2.50116,10.618906 -0.0523,0.515106 -0.0606,0.724454 -0.0633,1.242315 0,0.0055 -0.14049,69.272175 -0.14049,96.999772 0,3.52036 0.003,6.37135 0.006,8.34087 0.011,3.36334 1.41586,6.63303 3.84815,8.95239 2.43505,2.31935 5.77084,3.56718 9.12868,3.41292 3.49281,-0.15976 8.5089,-0.47654 13.00988,-0.74924 2.24223,-0.13773 4.34673,-0.26444 6.00498,-0.35534 0.82913,-0.0468 1.54532,-0.0826 2.08797,-0.10468 0.26995,-0.0138 0.49583,-0.022 0.65559,-0.0248 l 0.18456,-0.006 h 0.0413 l -0.003,-0.36085 v 0.36085 h 0.003 l -0.003,-0.36085 v 0.36085 -7.35197 l -0.34984,7.34095 0.34984,0.011 v -7.35197 l -0.34984,7.34095 c 4.22828,0.20109 8.26374,-1.76293 10.70981,-5.21442 l -1.66928,-1.18722 1.65826,1.20926 0.0138,-0.022 -1.66927,-1.18722 1.65826,1.20926 c 0.0578,-0.0826 0.47378,-0.63355 1.00542,-1.31944 1.90341,-2.46811 5.64964,-7.23078 8.88352,-11.32959 1.61969,-2.05216 3.11818,-3.94456 4.20624,-5.3246 1.09082,-1.38005 1.77671,-2.24223 1.77946,-2.24499 l -9.72642,-7.70456 -8.21691,9.30222 1.76017,1.55083 -6.45122,36.83975 12.2138,2.14031 -0.65559,-12.39286 0.65559,12.39286"
   id="path21"
   clip-path="none" /><path
   style="fill:#ffffff"
   d="m 233.41208,205.72314 c 6.97735,4.16217 14.31831,5.75156 22.09999,5.75156 19.83298,0 35.97206,-16.15286 35.97206,-35.98583 V 89.267764 c 0,-14.150277 -11.38468,-38.963533 -40.96335,-38.963533 -19.83298,0 -35.9638,16.119802 -35.9638,35.961041 v 86.240388 c 0,14.12273 6.25565,25.72227 18.8551,33.21748 M 261.49502,79.546851 v 98.693839 c 0,5.98846 -4.88111,10.86958 -10.88334,10.86958 -1.00818,0 -3.5479,-0.28372 -4.658,-2.02462 -0.8126,-1.26986 -1.24782,-2.96944 -1.24782,-5.85899 V 82.279395 c 0,-6.013248 4.6029,-10.500459 10.22224,-10.351712 4.35775,0.143239 6.56692,4.707578 6.56692,7.619168 z"
   id="path23"
   clip-path="none" /><path
   style="fill:#ffffff"
   d="m 233.41208,205.72314 -6.35757,10.65747 c 4.53404,2.7105 9.30222,4.62769 14.10345,5.82043 4.80399,1.19824 9.62175,1.68304 14.35411,1.68304 13.32115,0.006 25.48813,-5.45406 34.20087,-14.19159 8.73202,-8.71825 14.18333,-20.88523 14.17782,-34.20362 V 89.267764 c -0.011,-5.186874 -0.98614,-10.624415 -2.95015,-16.202439 -2.95567,-8.313322 -8.23069,-16.995758 -16.67348,-23.824362 -4.20349,-3.399151 -9.20029,-6.277687 -14.87748,-8.266494 -5.67995,-1.991561 -12.02374,-3.085129 -18.86887,-3.07962 -13.31289,-0.0055 -25.47711,5.440295 -34.1926,14.175068 -8.73478,8.712736 -14.18609,20.876961 -14.18058,34.198109 v 86.240384 c -0.0138,8.88077 2.00809,17.54668 6.28595,25.16034 4.25307,7.62192 10.69328,14.01805 18.63198,18.72288 l -0.011,-0.008 6.35757,-10.66022 6.34655,-10.66573 c -4.66075,-2.79039 -7.64947,-5.94163 -9.67408,-9.52534 -1.99983,-3.59197 -3.10441,-7.78169 -3.11819,-13.02641 V 86.265272 c 0.006,-6.522845 2.61961,-12.335009 6.90849,-16.643172 4.31092,-4.291635 10.12859,-6.902977 16.64593,-6.908486 5.66341,0.01102 9.93852,1.14866 13.44235,2.842726 2.62511,1.28088 4.83153,2.911591 6.74045,4.812251 2.85375,2.837218 5.01334,6.341043 6.40716,9.831096 1.40483,3.462507 1.98054,6.938787 1.96401,9.068077 v 86.221106 c -0.006,6.51458 -2.6196,12.34052 -6.91675,16.65694 -4.31367,4.29715 -10.1341,6.914 -16.64593,6.91951 -3.04932,0 -5.79288,-0.30851 -8.34913,-0.94758 -2.56176,-0.64181 -4.95273,-1.60041 -7.39329,-3.05207 l -0.011,-0.008 -6.34655,10.66573 M 261.49502,79.546851 h -12.40938 v 98.693839 h 1.54256 l -1.09632,-1.09632 c -0.24791,0.22863 -0.45175,0.68314 -0.44624,1.09632 h 1.54256 l -1.09632,-1.09632 1.0798,1.0798 v -1.52329 c -0.39942,-0.006 -0.84841,0.19283 -1.0798,0.44349 l 1.0798,1.0798 v -1.52329 4.97478 l 0.66936,-4.93346 c -0.20384,-0.0248 -0.34708,-0.0386 -0.66936,-0.0413 v 4.97478 l 0.66936,-4.93346 -0.74098,5.47611 2.30007,-4.99956 c -0.87595,-0.3884 -1.26711,-0.42696 -1.55909,-0.47655 l -0.74098,5.47611 2.30007,-4.99956 -3.30274,7.17292 4.93345,-6.15648 c -0.64181,-0.5096 -1.19824,-0.81536 -1.63071,-1.01644 l -3.30274,7.17292 4.93345,-6.15648 -5.60832,6.99663 7.55581,-4.81501 c -0.59774,-0.93931 -1.31393,-1.67478 -1.94749,-2.18162 l -5.60832,6.99663 7.55581,-4.81501 -0.0138,-0.022 -4.39356,2.81518 5.12903,-1.1404 c -0.0413,-0.23965 -0.30851,-1.03297 -0.73547,-1.67478 l -4.39356,2.81518 5.12903,-1.1404 -1.34423,0.2975 1.36076,-0.2066 -0.0165,-0.0909 -1.34423,0.2975 1.36076,-0.2066 c 0,-0.003 -0.0413,-0.31677 -0.0413,-0.9338 V 82.279395 h -1.89791 l 1.29466,1.261597 c 0.46552,-0.451751 0.62253,-1.088059 0.60325,-1.261597 h -1.89791 l 1.29466,1.261597 -1.85934,-1.809759 v 2.603078 c 0.62528,0.01653 1.42962,-0.322285 1.85934,-0.793319 l -1.85934,-1.809759 v 2.603078 -2.283546 l -0.0606,2.283546 h 0.0606 v -2.283546 l -0.0606,2.283546 -0.0716,-0.0028 0.2121,-6.478772 -3.33855,5.550478 c 0.83188,0.520616 2.07695,0.911766 3.12645,0.928294 l 0.2121,-6.478772 -3.33855,5.550478 2.91159,-4.839797 -4.28062,3.70491 c 0.28923,0.333305 0.72996,0.749246 1.36903,1.134887 l 2.91159,-4.839797 -4.28062,3.70491 2.82345,-2.443312 -3.52036,1.297407 c 0.1212,0.314022 0.26444,0.630799 0.69691,1.145905 l 2.82345,-2.443312 -3.52036,1.297407 4.27786,-1.57562 h -4.52026 c 0.0138,0.933803 0.13497,1.245071 0.2424,1.57562 l 4.27786,-1.57562 h -4.52026 24.81876 c -0.011,-2.289055 -0.39115,-4.280617 -1.03021,-6.263914 -0.98338,-2.936382 -2.56727,-5.905819 -5.39898,-8.638363 -1.4186,-1.349744 -3.17603,-2.608587 -5.25849,-3.539635 -2.0742,-0.933803 -4.46793,-1.506755 -6.88369,-1.578374 l -0.0689,-0.0028 -0.61151,-0.0083 c -6.11793,-0.01653 -11.89704,2.542478 -15.92423,6.712912 -4.06576,4.148397 -6.45123,9.963315 -6.43195,16.050937 v 98.947265 c 0.003,2.06043 0.14049,4.08504 0.61428,6.23361 0.46277,2.12929 1.35249,4.40733 2.59206,6.31901 l -0.0138,-0.022 c 1.35801,2.13205 3.08238,3.68288 4.66902,4.72686 2.41025,1.57287 4.50373,2.18989 6.1978,2.57278 1.7161,0.3636 3.03004,0.45726 4.25583,0.46552 6.40164,0.003 12.29369,-2.63613 16.46412,-6.82309 4.18972,-4.16768 6.83411,-10.05697 6.8286,-16.45862 V 79.546851 h -12.40938 z"
   id="path25"
   clip-path="none" /><path
   style="fill:#ffffff"
   d="m 400.6261,43.227716 0.0248,92.983594 c 1.47921,32.12667 30.87058,37.28324 42.35717,37.28324 21.60693,0 41.03498,-18.54934 41.03498,-38.38231 l 0.25342,-98.101611 c 0,-3.831621 1.73263,-11.109221 3.07962,-12.965808 l -4.66901,-5.481614 -38.21704,4.013423 c 0,0 7.14262,5.365922 7.47868,12.177998 0,0.374623 0.16252,107.169682 0.16252,107.169682 0,6.01876 -5.46784,10.89712 -12.19177,10.89712 -1.43789,0 -7.23352,0.0799 -7.20047,-7.90564 l -0.20935,-99.517466 c 0,-5.073936 0.84566,-12.070569 3.3358,-14.957368 l -4.34122,-6.481527 -39.54199,5.153819 c -0.006,0 7.80648,5.481614 8.64387,14.114468"
   id="path27"
   clip-path="none" /><path
   style="fill:#ffffff"
   d="m 400.6261,43.227716 -12.40938,0.0028 0.0248,92.9836 0.0138,0.56744 c 0.43247,9.8917 3.16501,18.52731 7.51725,25.41376 3.24489,5.16759 7.32167,9.30772 11.62157,12.49202 6.47602,4.7847 13.38726,7.50623 19.59608,9.1149 6.23362,1.59766 11.76481,2.09348 16.01788,2.10175 7.18119,0 14.07866,-1.53981 20.34809,-4.18146 9.40689,-3.98036 17.46403,-10.38752 23.38087,-18.3758 5.8948,-7.97726 9.70439,-17.72021 9.71816,-28.23444 v 0.0303 l 0.25066,-98.101611 v -0.0303 c -0.006,-0.03856 0.0358,-0.749246 0.16253,-1.578375 0.17904,-1.264352 0.53714,-2.903327 0.8732,-4.063005 0.16527,-0.575707 0.32504,-1.043986 0.39115,-1.195488 l 0.0165,-0.03856 -6.07384,-2.680206 5.34664,3.881203 c 0.63355,-0.906257 0.6914,-1.154169 0.7272,-1.200997 l -6.07384,-2.680206 5.34664,3.881203 c 3.36885,-4.638712 3.12369,-10.974246 -0.59775,-15.337501 l -4.66626,-5.481614 C 489.4916,7.3878764 485.50021,5.7929747 481.41242,6.2199346 l -38.21704,4.0134224 c -5.06568,0.534389 -9.30498,4.123607 -10.66298,9.035023 -1.35801,4.908661 0.43247,10.167154 4.50374,13.227492 l 4.29714,-5.712998 -4.40182,5.630361 0.10468,0.08264 4.29714,-5.712998 -4.40182,5.630361 0.39666,-0.509597 -0.40217,0.506842 0.008,0.0028 0.39666,-0.509597 -0.40217,0.506842 c 0.0468,0.02204 1.14315,0.961349 1.88137,1.933715 0.37463,0.476543 0.65009,0.942067 0.74925,1.176206 l 0.0551,0.126711 0.008,0.02755 1.28638,-0.371868 -1.32495,0.06336 0.0413,0.308513 1.28639,-0.371868 -1.32495,0.06336 12.39561,-0.611516 h -12.41214 c 0,0.415941 0.16527,107.177952 0.16527,107.188972 v -0.0193 h 2.50116 l -2.26426,-1.07428 c -0.13498,0.2727 -0.23965,0.69415 -0.2369,1.07428 h 2.50116 l -2.26426,-1.07428 1.49022,0.70792 -1.21752,-1.12662 -0.2727,0.4187 1.49022,0.70792 -1.21752,-1.12662 0.47379,0.43798 -0.37187,-0.52888 -0.10192,0.0909 0.47379,0.43798 -0.37187,-0.52888 h -0.006 l -0.38839,0.0716 h -0.0909 l -0.0964,-0.003 -0.0634,3.41293 0.76302,-3.31101 c -0.46828,-0.10467 -0.69691,-0.0992 -0.69967,-0.10192 l -0.0634,3.41293 0.76302,-3.31101 -1.33322,5.76809 2.85925,-5.17034 c -0.64457,-0.35534 -1.17345,-0.51511 -1.52603,-0.59775 l -1.33322,5.76809 2.85925,-5.17034 -3.33304,6.02151 4.84806,-4.88663 c -0.49031,-0.4848 -1.03021,-0.87044 -1.51502,-1.13488 l -3.33304,6.02151 4.84806,-4.88663 -4.35223,4.3908 5.84522,-2.12102 c -0.2066,-0.60601 -0.752,-1.55083 -1.49299,-2.26978 l -4.35223,4.3908 5.84522,-2.12102 -3.11268,1.12938 3.2752,-0.52062 c -0.0138,-0.0881 -0.0551,-0.303 -0.16528,-0.60876 l -3.11267,1.12938 3.27519,-0.52062 -0.97512,0.15426 0.97788,-0.11294 -0.006,-0.0413 -0.97512,0.15426 0.97787,-0.11294 v -0.0303 l -0.006,-0.14599 h -7.29137 l 7.29137,0.10192 v -0.10192 h -7.29137 l 7.29137,0.10192 0.003,-0.20109 -0.21211,-99.517461 v 0.02755 c -0.006,-1.848323 0.17905,-4.266844 0.51786,-5.977438 0.15702,-0.851165 0.3581,-1.526037 0.45176,-1.76844 l 0.0386,-0.0909 -3.82887,-1.727122 3.14573,2.713261 c 0.5702,-0.674872 0.67488,-0.988894 0.68314,-0.986139 l -3.82887,-1.727122 3.14573,2.713261 c 3.64707,-4.225525 4.02169,-10.376502 0.91452,-15.017969 l -4.34397,-6.478772 c -2.6196,-3.911504 -7.24179,-6.004984 -11.9108,-5.396222 l -39.54475,5.153819 c -5.08771,0.661099 -9.21958,4.357745 -10.44537,9.34078 -1.22579,4.98579 0.7217,10.175418 4.92244,13.122819 l 4.3605,-6.217087 -4.49823,6.117922 0.13773,0.09916 4.3605,-6.217087 -4.49823,6.117922 c 0.14875,0.104674 1.28363,1.055004 2.14306,2.203664 0.43522,0.572952 0.80158,1.17896 1.03572,1.705085 0.2369,0.534388 0.34433,0.964103 0.38564,1.344235 l 12.33777,-1.198242 -12.40938,0.0028 12.40938,-0.0028 12.35153,-1.195488 c -0.37737,-3.889467 -1.52879,-7.305146 -2.92261,-10.131345 -2.10725,-4.250317 -4.70206,-7.269336 -6.78728,-9.368326 -2.09624,-2.093481 -3.7297,-3.266932 -4.16768,-3.5782 l -7.1261,10.158891 1.60317,12.304709 31.91456,-4.156662 0.0578,0.08539 10.30763,-6.905731 -9.39311,-8.109484 c -1.99983,2.352412 -3.008,4.545057 -3.79306,6.580692 -1.13489,3.052074 -1.67754,5.897555 -2.05492,8.665908 -0.36085,2.760089 -0.50133,5.404486 -0.50408,7.820252 v 0.02479 l 0.20934,99.517464 12.40939,-0.0248 -12.40663,-0.1763 -0.003,0.24792 c -0.003,3.39364 0.61428,6.84237 2.18163,10.00738 1.15693,2.36068 2.85926,4.45692 4.72962,5.98295 2.82344,2.3166 5.77359,3.33029 7.99103,3.79857 1.12112,0.23689 2.09624,0.34432 2.89506,0.39941 0.79057,0.0551 1.43239,0.0551 1.72162,0.0551 h 0.0909 c 6.37134,-0.006 12.34052,-2.29732 16.88557,-6.34655 2.26978,-2.02737 4.18972,-4.51751 5.5615,-7.40431 1.36903,-2.87853 2.15959,-6.1675 2.15684,-9.55564 v -0.0193 c 0,0 -0.0413,-26.69739 -0.0826,-53.444358 -0.0413,-26.733198 -0.0799,-53.560052 -0.0799,-53.706044 l -0.0138,-0.611517 c -0.19557,-3.798566 -1.29189,-7.026933 -2.56727,-9.630011 -1.94197,-3.911504 -4.28612,-6.619256 -6.15097,-8.552971 -1.88138,-1.917188 -3.33304,-3.027283 -3.6994,-3.305496 l -7.45665,9.921997 1.29741,12.343273 31.71623,-3.333042 0.42971,0.506843 9.44546,-8.048883 -10.04045,-7.291373 c -0.90901,1.272616 -1.34974,2.187137 -1.76017,3.046565 -0.67212,1.481964 -1.10734,2.779372 -1.52604,4.151152 -0.61152,2.03839 -1.10459,4.162171 -1.49023,6.32727 -0.37462,2.184382 -0.6611,4.286127 -0.67487,6.732194 v -0.03306 l -0.25342,98.101606 v 0.0331 c 0,2.92261 -0.71619,5.98019 -2.1651,9.02125 -2.15408,4.55607 -6.02151,8.96615 -10.77867,12.0623 -4.75992,3.11819 -10.26632,4.89764 -15.68182,4.88938 -1.96127,0.006 -5.15658,-0.2424 -8.54196,-1.00818 -2.54523,-0.56744 -5.21166,-1.42136 -7.67701,-2.5893 -3.72144,-1.76569 -6.89196,-4.13462 -9.23886,-7.37126 -2.33038,-3.26693 -4.14565,-7.53102 -4.50374,-14.47531 l -12.39561,0.57019 12.41214,-0.003 -0.0276,-92.983599 c 0,-0.517861 -0.008,-0.677627 -0.0578,-1.192733 l -12.34603,1.195488"
   id="path29"
   clip-path="none" /><path
   style="fill:#ffffff"
   d="m 144.34274,91.410827 -5.47335,-4.313672 -33.3194,11.186349 2.07971,2.892306 c 2.06318,2.85099 4.39355,6.08762 4.39355,10.0129 l -0.0771,123.29775 c 0,7.12885 -2.65817,12.18351 -3.33028,13.45062 l 7.82025,5.29981 36.54226,-13.74536 -3.39915,-2.77937 c -3.14849,-2.59757 -6.55866,-8.14254 -6.55866,-14.1971 0,0 0.14048,-50.73661 0.15701,-54.05588 2.06594,-0.69966 13.4093,-4.54506 20.78606,-7.08478 0.022,14.72323 0.16252,52.84662 0.16252,52.84662 0,2.76284 -1.82629,11.60504 -3.82611,14.59927 4.82327,3.67186 7.80648,5.66617 7.80648,5.66617 l 35.47072,-12.81706 c 0,0 -9.45647,-5.96642 -9.13143,-12.68208 0.0358,-4.76818 -0.0854,-120.074897 -0.0854,-122.066458 0,-1.694067 -0.16803,-6.299724 2.50116,-11.786848 l -6.33003,-4.98028 -34.02181,10.175418 4.17043,2.980456 c 1.64724,1.173451 2.69949,3.6691 3.10441,7.418083 0,0.278213 -0.14874,41.189229 -0.15701,44.549819 -2.13204,0.66386 -13.50019,4.23379 -20.76678,6.51734 0,-11.34887 0,-36.75712 0,-36.75712 0,-4.56709 1.48197,-13.626903 1.48197,-13.626903"
   id="path31"
   clip-path="none" /><path
   style="fill:#ffffff"
   d="m 144.34274,91.410827 7.68252,-9.745704 -5.47335,-4.313672 c -3.29172,-2.594814 -7.66049,-3.352323 -11.63259,-2.019107 l -33.3194,11.186349 c -3.735208,1.256089 -6.652308,4.208998 -7.861569,7.957982 -1.20926,3.748983 -0.564689,7.850555 1.735386,11.051375 l 2.079707,2.89231 0.02479,0.0358 c 1.027458,1.39932 1.707839,2.42954 1.955751,2.93913 l 0.121202,0.26444 0.01928,0.0523 1.685799,-0.52337 h -1.749154 c 0,0.28097 0.05785,0.51235 0.06336,0.52337 l 1.685799,-0.52337 h -1.749154 v -0.008 l -0.07437,123.29775 v 0.008 c 0.0028,2.01635 -0.380132,3.77378 -0.809847,5.10424 -0.214857,0.6611 -0.437978,1.20926 -0.622535,1.61694 -0.190066,0.4242 -0.311267,0.65008 -0.446242,0.90625 -2.969437,5.58905 -1.242315,12.54436 3.996892,16.09501 l 7.8175,5.29982 c 3.33029,2.25875 7.56408,2.76008 11.33234,1.34148 l 36.54226,-13.7426 c 4.1484,-1.56185 7.1564,-5.2282 7.87534,-9.60247 0.71895,-4.37703 -0.95583,-8.8119 -4.38804,-11.61882 l -3.39915,-2.78212 0.0413,0.0331 -0.022,-0.0193 c -0.19007,-0.1515 -0.91728,-1.03572 -1.34975,-1.99432 -0.46827,-0.96961 -0.68589,-1.96952 -0.67487,-2.60858 v 0.0358 c 0,-0.008 0.008,-3.17052 0.022,-7.98002 0.0413,-14.41196 0.12396,-43.61326 0.13497,-46.04556 l -12.40938,-0.0661 3.97211,11.75655 c 2.09348,-0.70793 13.42582,-4.54781 20.85492,-7.10957 l -4.04097,-11.73176 -12.41214,0.0193 c 0.0248,14.75353 0.16528,52.86866 0.16528,52.87417 v -0.0468 h 3.20358 l -3.19807,-0.20384 -0.006,0.20384 h 3.20358 l -3.19807,-0.20384 c 0,0.0744 -0.0882,0.88146 -0.25618,1.80425 -0.24516,1.40759 -0.66385,3.23938 -1.08806,4.65524 -0.20934,0.70517 -0.42145,1.31118 -0.55918,1.64724 l -0.0799,0.19006 -0.0275,0.0579 1.52604,0.73823 -1.47921,-0.82638 -0.0468,0.0882 1.52604,0.73823 -1.47921,-0.82638 4.60015,2.57003 -4.37978,-2.92537 -0.22037,0.35534 4.60015,2.57003 -4.37978,-2.92537 c -3.6388,5.44856 -2.4075,12.80329 2.80692,16.76988 5.06016,3.85091 8.24721,5.98571 8.4235,6.10415 3.2752,2.18989 7.40982,2.69398 11.11473,1.35526 l 35.47348,-12.81706 c 4.46518,-1.61419 7.60815,-5.61384 8.11775,-10.33519 0.51235,-4.72135 -1.69958,-9.29946 -5.71576,-11.83367 l -2.77386,4.40182 2.84824,-4.35224 -0.0744,-0.0496 -2.77386,4.40182 2.84824,-4.35224 c -0.0331,-0.006 -1.67754,-1.15417 -2.75458,-2.30007 -0.54265,-0.55367 -0.91452,-1.09082 -0.95584,-1.18172 l -0.003,-0.008 -3.22836,1.5949 h 3.51484 c -0.006,-1.03848 -0.28097,-1.57838 -0.28648,-1.5949 l -3.22836,1.5949 h 3.51484 -5.70198 l 5.69372,0.28648 0.008,-0.28648 h -5.70198 l 5.69372,0.28648 0.0165,-0.52888 c 0.006,-0.7768 0.006,-3.35784 0.006,-7.48695 0,-26.37786 -0.0909,-112.976342 -0.0909,-114.675918 0,-0.283722 0,-0.484806 0,-0.680381 0,-0.732719 0.022,-1.4434 0.18181,-2.39373 0.16252,-0.933803 0.45726,-2.024617 1.06877,-3.28346 2.55625,-5.258493 1.10734,-11.569235 -3.4873,-15.183244 l -6.32727,-4.977526 c -3.16225,-2.49014 -7.37401,-3.291723 -11.23042,-2.137554 l -34.02181,10.175418 c -4.55057,1.360763 -7.90565,5.167592 -8.6852,9.850378 -0.7823,4.68554 1.15968,9.373835 5.02436,12.136679 l 4.17043,2.980456 0.0248,0.01377 4.27511,-6.010493 -5.95265,4.382537 c 0.34157,0.468278 0.898,1.07704 1.67754,1.627956 l 4.27511,-6.010493 -5.95265,4.382537 4.0878,-3.010756 -4.58087,2.209173 c 0.0826,0.170784 0.23414,0.448997 0.49307,0.801583 l 4.0878,-3.010756 -4.58087,2.209173 1.93097,-0.931048 -2.02462,0.710682 0.0936,0.220366 1.93097,-0.931048 -2.02462,0.710682 0.0165,0.0606 c 0.0441,0.151502 0.13773,0.578462 0.20659,1.228543 l 12.33776,-1.333217 h -12.40938 v 0.0055 c -0.006,1.492983 -0.14875,41.18372 -0.15976,44.51126 l 12.41213,0.0331 -3.68838,-11.8502 c -2.18163,0.68038 -13.51948,4.2393 -20.79983,6.52835 l 3.72143,11.83919 h 12.40939 c 0,-5.67444 0,-14.86372 0,-22.63438 0,-7.77067 0,-14.12274 0,-14.12274 -0.006,-0.48756 0.0578,-1.64173 0.17629,-2.90608 0.17905,-1.91443 0.46828,-4.156659 0.71344,-5.867253 0.1212,-0.856674 0.23138,-1.583884 0.30851,-2.090726 0.0386,-0.253422 0.0716,-0.451751 0.0909,-0.581217 l 0.0248,-0.143238 0.006,-0.03581 c 0.72721,-4.454156 -1.01919,-8.952385 -4.56434,-11.748284 l -7.68252,9.745704 -12.24962,-2.002579 c -0.011,0.08264 -0.39941,2.451576 -0.79883,5.495386 -0.19833,1.526038 -0.39941,3.220104 -0.55918,4.927944 -0.15701,1.718862 -0.28096,3.410172 -0.28647,5.206152 0,0 0,25.40825 0,36.75712 0,3.93905 1.89239,7.6715 5.06842,10.00188 3.17604,2.33313 7.3024,3.01626 11.0624,1.8373 7.25556,-2.28079 18.65126,-5.85899 20.73372,-6.50632 5.18687,-1.61418 8.70723,-6.3796 8.72375,-11.81439 0.003,-1.66376 0.0441,-12.74269 0.0826,-23.42219 0.0193,-5.34113 0.0386,-10.58585 0.0523,-14.513883 0.006,-1.964015 0.011,-3.597481 0.0165,-4.748896 0.003,-0.575707 0.003,-1.032967 0.006,-1.349744 0,-0.330549 0,-0.45726 0,-0.550916 0,-0.517861 -0.0165,-0.81811 -0.0716,-1.333216 -0.30301,-2.721525 -0.83189,-5.37694 -1.97779,-8.139784 -0.58122,-1.380044 -1.32771,-2.787635 -2.3469,-4.175943 -1.01644,-1.380045 -2.32211,-2.743562 -3.92528,-3.881203 l 0.022,0.01653 -4.17044,-2.980455 -7.21424,10.095535 3.55341,11.888767 27.85431,-8.32985 1.26986,0.999913 7.67426,-9.753968 L 185.7,69.704738 c -1.75742,3.608499 -2.71326,7.040706 -3.20908,9.924751 -0.49583,2.870272 -0.54266,5.28053 -0.54266,6.610992 0,0.330549 0.003,0.581216 0.003,0.680381 0,1.746404 0.0909,88.317338 0.0909,114.675918 0,4.07953 -0.003,6.78453 -0.008,7.29137 l 12.41213,0.0992 -12.39561,-0.62805 c -0.0165,0.34708 -0.0248,0.66936 -0.0248,0.96686 0,2.26426 0.39666,4.35224 0.97512,6.17301 1.03022,3.20082 2.55074,5.63036 4.04924,7.62193 2.27252,2.96943 4.60014,5.02986 6.43194,6.52009 1.8318,1.4737 3.17878,2.33588 3.47628,2.52319 l 6.61925,-10.49495 -4.21726,-11.67115 -35.47072,12.81706 4.21726,11.67115 6.89747,-10.3159 c -0.1763,-0.1212 -2.88956,-1.953 -7.19221,-5.22544 l -7.51174,9.87517 10.31866,6.89471 c 0.7823,-1.18171 1.28363,-2.18713 1.72712,-3.15399 0.75475,-1.67754 1.28914,-3.2504 1.77119,-4.84255 0.71068,-2.37445 1.2616,-4.74614 1.67754,-6.95532 0.2066,-1.10734 0.37462,-2.1651 0.50684,-3.20357 0.12396,-1.05501 0.22863,-2.01635 0.23414,-3.33855 v -0.0468 c 0,-0.006 -0.008,-2.37996 -0.022,-6.18403 -0.0413,-11.40947 -0.12396,-35.61948 -0.14049,-46.63504 -0.006,-4.02444 -1.93371,-7.7569 -5.21166,-10.09003 -3.28071,-2.33313 -7.43737,-2.93362 -11.24144,-1.62244 -7.31892,2.52044 -18.6733,6.36858 -20.71444,7.05998 -5.00507,1.69132 -8.40974,6.40716 -8.43728,11.69044 -0.0165,3.37987 -0.15701,54.07516 -0.15701,54.08893 v 0.0331 c 0.0138,5.37694 1.46268,10.0735 3.42945,13.98775 2.01635,3.92804 4.46793,7.12335 7.6412,9.78152 l 0.0413,0.0331 3.3964,2.77937 7.85882,-9.60522 -4.36877,-11.61606 -30.52901,11.48384 -2.50115,-1.69406 -6.96358,10.27183 10.96047,5.82318 c 0.20109,-0.37738 0.66385,-1.25609 1.15968,-2.36068 1.504,-3.35232 3.61125,-9.2361 3.61952,-16.91312 v 0.008 l 0.0771,-123.30051 v -0.006 c 0.003,-4.46242 -1.34975,-8.24721 -2.7656,-11.02383 -1.43514,-2.80416 -2.95016,-4.817758 -3.98588,-6.266667 l 0.0248,0.03581 -2.07971,-2.892309 -10.07625,7.241791 3.95007,11.764806 26.95632,-9.05154 0.20108,0.15976 7.68528,-9.745703 -12.24962,-2.002579 12.24962,2.002579"
   id="path33"
   clip-path="none" /><path
   style="fill:#ffffff"
   d="M 144.0177,302.78627 C 118.82982,287.57823 49.846875,223.93367 51.805381,135.82016 52.794276,90.749728 64.8979,76.57466 73.236013,67.834378 79.706521,61.019547 89.664328,56.70863 95.498528,57.350447 105.91359,58.521143 107.31568,68.649733 107.79773,71.635698 l 5.80941,7.811989 25.59004,-24.752655 -1.32495,-8.979931 C 112.00122,30.091124 87.587374,31.289366 73.908131,35.016313 56.749852,39.666044 42.200161,49.521931 31.785095,63.501424 19.202174,80.398017 12.690347,102.98557 12.420398,130.61401 c -0.826374,85.26526 51.598791,133.00489 73.778668,150.05574 21.675794,16.71479 43.684884,22.27904 50.510734,23.93454 8.93035,2.18163 10.33243,0 7.3079,-1.81802"
   id="path35"
   clip-path="none" /><path
   style="fill:#ffffff"
   d="m 144.0177,302.78627 6.41541,-10.62166 c -2.55349,-1.53981 -5.97192,-3.89222 -9.86415,-6.93879 -6.82309,-5.33562 -15.13641,-12.80879 -23.65908,-22.06969 C 104.10934,249.25927 90.82676,231.3242 80.855181,210.40868 70.872584,189.47663 64.1762,165.64125 64.1762,139.49753 c 0,-1.13213 0.01102,-2.26427 0.03581,-3.39915 v -0.006 c 0.471033,-21.47746 3.583709,-34.73525 7.043461,-43.200079 1.73814,-4.250317 3.556163,-7.34371 5.363167,-9.888942 1.815268,-2.547986 3.636046,-4.547811 5.597307,-6.602728 l 0.01653,-0.02204 c 1.807004,-1.922697 4.498229,-3.83713 7.024179,-5.054655 1.253334,-0.614271 2.45984,-1.063267 3.399151,-1.322198 0.933803,-0.26444 1.61143,-0.314022 1.636221,-0.303004 v -1.404835 l -0.151502,1.391062 0.151502,0.01377 v -1.404835 l -0.151502,1.391062 -0.02755,-0.0028 c 0.33055,0.03856 0.448997,0.08815 0.465524,0.09366 l 0.06887,-0.181803 -0.08815,0.170784 0.01928,0.01102 0.06887,-0.181803 -0.08815,0.170784 0.336059,-0.644571 -0.46277,0.559179 0.126711,0.08539 0.336059,-0.644571 -0.46277,0.559179 0.336059,-0.407678 -0.371868,0.377378 0.03581,0.0303 0.336059,-0.407678 -0.371868,0.377378 0.05234,-0.05234 -0.05509,0.04683 0.0028,0.0055 0.05234,-0.05234 -0.05509,0.04683 c 0.02479,0.0055 0.349832,0.495824 0.58948,1.291898 0.123956,0.388395 0.23414,0.826374 0.322286,1.267106 0.08815,0.448997 0.154257,0.859429 0.242403,1.4131 0.314022,1.93647 1.121114,3.850903 2.291811,5.426522 l 5.809409,7.811989 c 2.14306,2.881291 5.37143,4.671767 8.95238,4.963753 3.5782,0.289231 7.05448,-0.953085 9.63552,-3.451489 l 25.5873,-24.752655 c 2.86201,-2.768352 4.23103,-6.790039 3.64982,-10.731843 l -1.32496,-8.977176 c -0.5454,-3.685628 -2.67469,-6.88645 -5.86174,-8.811901 -18.51629,-11.197367 -36.77364,-14.877486 -51.653885,-14.860958 -8.514407,0.0028 -15.946263,1.167941 -21.989812,2.812426 l 0.01928,-0.0055 C 50.934934,28.358493 33.873066,39.88641 21.832798,56.088849 14.566216,65.842816 9.1562209,77.125576 5.5614941,89.592804 1.9640127,102.07105 0.15700833,115.73928 0.01101559,130.49281 c -0.00550916,0.70792 -0.0110183162,1.41034 -0.0110183162,2.11276 C -0.00275731,154.88737 3.4432221,174.88562 9.0102281,192.53696 c 8.3463769,26.4908 21.4168589,47.65699 34.5341679,63.82087 13.120064,16.16938 26.314502,27.40256 35.090594,34.14852 l -0.01653,-0.011 c 11.924577,9.19204 23.849148,15.26313 33.727078,19.28482 4.94171,2.00809 9.37659,3.50658 13.0512,4.61667 3.66359,1.10735 6.60273,1.83455 8.38494,2.26702 l -0.0165,-0.003 c 3.31927,0.79607 6.08211,1.25058 9.00748,1.26711 0.97236,-0.003 1.97779,-0.0551 3.10716,-0.22863 0.84566,-0.13222 1.76569,-0.33055 2.81518,-0.69416 1.54532,-0.55367 3.52036,-1.43789 5.55875,-3.53963 0.99716,-1.04399 1.9585,-2.41852 2.6196,-4.01894 0.66937,-1.5949 1.00542,-3.37987 0.99716,-5.01333 -0.003,-2.29457 -0.59223,-4.21175 -1.2616,-5.64414 -1.03572,-2.16234 -2.20091,-3.42394 -3.22836,-4.41008 -1.04399,-0.97512 -2.01636,-1.64999 -2.96669,-2.22845 l 0.0193,0.0138 -6.41541,10.62166 -6.39338,10.63543 4.14289,-6.88645 -6.03253,5.25574 c 0.9641,1.07704 1.55358,1.4131 1.88964,1.63071 l 4.14289,-6.88645 -6.03253,5.25574 8.01582,-6.98837 -9.6245,4.50374 c 0.55643,1.17896 1.13489,1.93647 1.60868,2.48463 l 8.01582,-6.98837 -9.6245,4.50374 10.41782,-4.87285 h -11.4921 c 0.003,2.04941 0.52887,3.70766 1.07428,4.87285 l 10.41782,-4.87285 H 133.05172 144.8 l -11.0376,-4.02169 c -0.48205,1.30567 -0.71619,2.72704 -0.71068,4.02169 H 144.8 l -11.0376,-4.02169 10.89436,3.96935 -7.25281,-9.06257 c -1.28639,1.00818 -2.80692,2.77111 -3.64155,5.09322 l 10.89436,3.96935 -7.25281,-9.06257 6.78178,8.47309 -4.24756,-9.99361 c -0.6914,0.29749 -1.55634,0.74098 -2.53422,1.52052 l 6.78178,8.47309 -4.24756,-9.99361 3.50382,8.24721 -1.3525,-8.87526 c -0.43522,0.0716 -1.11285,0.19282 -2.15132,0.62805 l 3.50382,8.24721 -1.3525,-8.87526 0.68038,4.47069 0.003,-4.53404 c -0.0468,0.003 -0.24791,0 -0.68314,0.0634 l 0.68038,4.47069 0.003,-4.53404 v 0.38013 l 0.008,-0.38013 h -0.008 v 0.38013 l 0.008,-0.38013 c -0.0606,0.011 -1.24507,-0.0881 -3.12645,-0.55643 l -0.0193,-0.006 c -1.62796,-0.39666 -4.0024,-0.98338 -7.05999,-1.90617 -9.15071,-2.75733 -24.17419,-8.50614 -38.798255,-19.79716 l -0.01377,-0.011 C 83.455505,262.91373 66.120933,247.84617 51.488605,225.08508 44.169686,213.70591 37.514621,200.41782 32.680333,185.07756 27.8488,169.73455 24.824271,152.33387 24.821517,132.60557 c 0,-0.61978 0.0028,-1.24507 0.0083,-1.87036 0.123957,-12.87491 1.70784,-24.31192 4.580867,-34.261465 2.875781,-9.957806 7.01316,-18.417121 12.329499,-25.559747 h -0.0028 C 50.524502,59.154696 62.564771,50.97084 77.150271,46.995981 l 0.01928,-0.0055 c 3.90324,-1.066023 9.252634,-1.941979 15.464212,-1.939225 10.910895,0.01653 24.408335,2.597569 38.823045,11.288269 l 6.41542,-10.624415 -12.27716,1.812514 0.3939,2.677451 -21.00918,20.323291 8.62735,8.91933 9.96056,-7.404311 -5.80941,-7.811989 -9.96056,7.404311 12.25237,-1.980543 c -0.0496,-0.303004 -0.14599,-0.933803 -0.28923,-1.707839 -0.25618,-1.366272 -0.65835,-3.211841 -1.38556,-5.321849 -1.09632,-3.142975 -2.93913,-7.04897 -6.52009,-10.618905 -1.78221,-1.768441 -4.0024,-3.396397 -6.56141,-4.619431 -2.559,-1.228542 -5.426518,-2.035634 -8.409728,-2.368939 l -0.02479,-0.0028 c -0.881465,-0.09641 -1.735385,-0.137729 -2.567268,-0.137729 -2.936382,0.0083 -5.616589,0.484806 -8.244458,1.200997 -3.922522,1.090813 -7.726596,2.771107 -11.414979,4.963753 -3.677364,2.200909 -7.222508,4.911416 -10.395784,8.247212 l 0.01928,-0.02204 c -2.206419,2.313847 -5.027109,5.363167 -7.856062,9.340781 -4.272354,5.974684 -8.467579,14.009793 -11.516899,24.810501 -3.065847,10.819994 -5.093218,24.422104 -5.484368,42.128544 v -0.006 c -0.0303,1.32495 -0.04407,2.6444 -0.04407,3.95558 0,23.17428 4.539548,44.70132 11.690437,64.06877 10.740107,29.06633 27.267587,53.3149 43.541645,71.87801 8.142538,9.28293 16.232738,17.14451 23.592978,23.49106 7.37401,6.35206 13.9547,11.16431 19.4253,14.47532 l 0.0193,0.011 6.39338,-10.63543"
   id="path37"
   clip-path="none" /><path
   style="fill:#ffffff"
   d="m 638.48407,161.6416 c 0,0 -6.35206,-7.54755 -5.72401,-14.00429 0.62804,-6.45398 3.37436,-24.50199 4.57535,-33.36622 4.28888,0.23689 18.65677,0.94206 22.30384,1.14315 0.83188,4.11534 5.7185,29.36657 5.86725,30.14336 0.92279,5.61659 -3.59197,9.52259 -3.59197,9.52259 l 3.11267,6.56141 44.58839,1.96126 c 0,0 -9.80906,-8.26374 -15.21079,-20.75576 -0.3581,-1.52604 -24.32294,-111.687199 -24.57912,-112.852386 -1.19549,-4.473438 1.45442,-12.076079 4.41835,-13.290848 l -3.32753,-4.159416 -4.58087,0.0303 -46.54414,-0.165274 2.08522,4.465174 c 1.79048,3.834375 2.55625,6.206068 1.99983,9.362817 -0.7217,4.16217 -23.07512,115.976073 -24.11911,120.567963 -1.19548,2.51218 -1.97503,4.58362 -5.9251,7.49521 l 3.53413,7.07927 41.11761,0.26169 m 3.43772,-73.090027 c 0.85392,-4.498229 2.79314,-17.775304 5.6221,-32.740936 3.74347,15.406365 6.01324,28.206898 7.06825,33.11005 -4.44039,-0.154257 -8.52818,-0.223121 -12.69035,-0.369114 z"
   id="path39"
   clip-path="none" /><path
   style="fill:#ffffff"
   d="m 638.48407,161.6416 9.49504,-7.98829 -4.18421,3.5176 4.23379,-3.45424 -0.0523,-0.0634 -4.1842,3.5176 4.23379,-3.45424 c -0.0138,-0.008 -1.05225,-1.32495 -1.85108,-2.78213 -0.40217,-0.71894 -0.74374,-1.46543 -0.90901,-1.97228 -0.0854,-0.25342 -0.12947,-0.44073 -0.14875,-0.52337 l 0.003,-0.0413 -0.32229,0.0468 0.32504,-0.0248 -0.003,-0.022 -0.32229,0.0468 0.32504,-0.0248 -1.69682,0.13222 h 1.69957 l -0.003,-0.13222 -1.69682,0.13222 h 1.69957 -2.97219 l 2.95842,0.28648 0.0138,-0.28648 h -2.97219 l 2.95842,0.28648 v 0.003 c 0.12671,-1.31669 0.40492,-3.58921 0.76027,-6.25565 1.07428,-8.05714 2.83721,-19.84399 3.76,-26.65056 l -12.29645,-1.66376 -0.68313,12.3901 c 2.20917,0.12395 6.8589,0.35809 11.45079,0.58948 4.57535,0.22863 9.10388,0.45726 10.84753,0.55367 l 0.68589,-12.3901 -12.16422,2.45708 c 0.39115,1.93647 1.83179,9.32976 3.17052,16.22999 1.34148,6.92226 2.60032,13.42306 2.67745,13.81697 l 12.18351,-2.36068 -12.24411,2.0136 3.02177,-0.49858 h -3.06034 l 0.0413,0.49858 3.02178,-0.49858 h -3.06034 2.6747 l -2.53146,-0.9035 c -0.0579,0.15426 -0.14324,0.49032 -0.14324,0.9035 h 2.6747 l -2.53146,-0.9035 0.85943,0.30576 -0.78781,-0.46552 -0.0689,0.15976 0.85943,0.30576 -0.78781,-0.46552 -0.0523,0.0689 3.28346,2.93914 -2.87302,-3.32203 c -0.32504,0.28097 -0.40217,0.37463 -0.41044,0.38289 l 3.28346,2.93914 -2.87302,-3.32203 c -4.22277,3.65533 -5.48713,9.66307 -3.09064,14.70946 l 3.11543,6.55865 c 1.96952,4.1484 6.0766,6.87544 10.66573,7.07652 l 44.58839,1.96126 c 5.31634,0.23414 10.16715,-2.92812 12.10637,-7.88636 1.93372,-4.95824 0.5096,-10.57208 -3.56442,-14.00153 l -4.80674,5.70473 4.85081,-5.66892 -0.0441,-0.0358 -4.80674,5.70473 4.85081,-5.66892 -0.011,-0.008 c -0.17078,-0.146 -2.23396,-1.96677 -4.68829,-4.89765 -2.46535,-2.92261 -5.2888,-6.95807 -7.16742,-11.32408 l -11.38743,4.92795 12.08159,-2.83171 -5.55875,1.30292 5.56701,-1.25334 -0.011,-0.0496 -5.55874,1.30292 5.567,-1.25334 c -0.0248,-0.11294 -0.16527,-0.752 -0.37462,-1.70508 -1.58939,-7.25281 -7.57509,-34.74627 -13.18893,-60.542915 -2.80691,-12.899697 -5.52293,-25.380699 -7.55305,-34.702197 -1.01369,-4.663504 -1.85659,-8.533689 -2.45158,-11.274496 -0.30025,-1.371781 -0.53714,-2.45984 -0.70242,-3.222858 -0.17078,-0.774037 -0.25893,-1.170697 -0.28648,-1.305671 l -0.12395,-0.512352 -3.93354,1.04674 4.04923,-0.468278 c -0.0138,-0.112938 -0.0413,-0.300249 -0.11569,-0.578462 l -3.93354,1.04674 4.04923,-0.468278 -1.21477,0.140483 h 1.22579 l -0.011,-0.140483 -1.21477,0.140483 h 1.22579 c -0.003,-0.0303 0.0165,-0.369113 0.10192,-0.740982 0.11018,-0.561934 0.40217,-1.234051 0.42145,-1.239561 l -3.008,-1.705085 2.50391,2.341393 c 0.42145,-0.460014 0.49858,-0.636308 0.50409,-0.636308 l -3.008,-1.705085 2.50391,2.341393 -6.22259,-5.812163 3.20633,7.825761 c 1.79323,-0.760264 2.58655,-1.578374 3.01626,-2.013598 l -6.22259,-5.812163 3.20633,7.825761 c 3.6085,-1.476455 6.33002,-4.594639 7.3079,-8.368413 0.97512,-3.77102 0.11293,-7.820253 -2.31936,-10.8640636 L 680.60711,4.7930622 C 678.22715,1.8153613 674.64069,0.10752176 670.82835,0.13506756 L 666.31084,0.16536794 619.8273,9.31473e-5 C 615.59351,-0.01643433 611.60213,2.1624384 609.32409,5.7268648 607.04605,9.2940457 606.7458,13.830839 608.53903,17.662459 l 2.08798,4.467929 c 0.606,1.286389 0.92278,2.104499 1.00542,2.390975 l 0.0358,0.129466 0.2121,-0.05234 -0.2121,0.03856 v 0.01377 l 0.2121,-0.05234 -0.2121,0.03856 1.92545,-0.358096 h -1.95575 l 0.0303,0.358096 1.92545,-0.358096 h -1.95575 1.84006 l -1.83455,-0.168029 -0.006,0.168029 h 1.84006 l -1.83455,-0.168029 0.84565,0.07988 -0.84015,-0.115693 -0.005,0.03581 0.84565,0.07988 -0.84015,-0.115693 -0.003,0.0083 -0.006,0.03581 -0.006,0.02204 c -0.0413,0.217612 -0.18731,0.999913 -0.40217,2.09899 -1.62795,8.365659 -7.30239,36.875561 -12.68484,63.760261 -2.69398,13.450618 -5.31358,26.504568 -7.31616,36.456868 -1.00267,4.97752 -1.85108,9.17826 -2.47912,12.26063 -0.31127,1.53981 -0.57296,2.80141 -0.76027,3.7297 -0.18731,0.90626 -0.33055,1.57562 -0.33881,1.60592 l 12.10087,2.75183 -11.20012,-5.34113 c -0.36085,0.76026 -0.59224,1.25884 -0.72446,1.51502 -0.20935,0.3939 -0.14324,0.25893 -0.18731,0.32779 -0.0496,0.0551 -0.29474,0.34983 -1.17345,0.99716 -4.85632,3.57545 -6.44021,10.14512 -3.74072,15.54134 l 3.53688,7.08203 c 2.08522,4.17869 6.35206,6.83411 11.02108,6.86165 l 41.12312,0.26169 c 4.82602,0.0303 9.2609,-2.7656 11.31306,-7.13436 2.04941,-4.36877 1.36627,-9.56941 -1.73814,-13.26331 l -9.50055,7.98829 0.0744,-12.40939 -33.50396,-0.2121 -0.13222,-0.26719 -11.0982,5.54772 7.35473,9.99362 c 1.39932,-1.02746 2.66643,-2.09624 3.81234,-3.23388 1.72161,-1.68856 3.13746,-3.60299 4.10156,-5.26125 0.97237,-1.66652 1.50401,-2.92261 1.8621,-3.65533 0.38564,-0.80984 0.69966,-1.71059 0.89799,-2.58655 0.0634,-0.28923 0.12121,-0.55367 0.19833,-0.9338 0.59775,-2.81518 2.32211,-11.34887 4.62494,-22.79415 3.44874,-17.1445 8.15907,-40.676878 12.07333,-60.308769 1.9585,-9.817323 3.71593,-18.65677 5.01884,-25.237461 0.64733,-3.291723 1.18998,-6.016003 1.57838,-8.024092 0.19833,-1.005421 0.35809,-1.829041 0.47929,-2.465349 0.12947,-0.650081 0.20109,-1.038476 0.27271,-1.43789 l -0.006,0.03306 c 0.23138,-1.31669 0.36636,-2.707752 0.36636,-4.109834 0.008,-2.553495 -0.46828,-5.040881 -1.11836,-7.10957 -0.65008,-2.090726 -1.42688,-3.831621 -2.2257,-5.550479 v 0.0028 l -2.08798,-4.4679289 -11.24144,5.2557389 -0.0468,12.409382 46.54689,0.165275 h 0.12946 l 4.58087,-0.0303 -0.0854,-12.409382 -9.69062,7.748633 3.32754,4.16217 9.69061,-7.751387 -4.70207,-11.4838439 c -1.81251,0.7492457 -3.17052,1.6968212 -4.26133,2.6196054 -1.8924,1.6362205 -3.04932,3.2338765 -4.01343,4.7874595 -1.41034,2.335884 -2.33313,4.646977 -3.03003,7.08478 -0.67488,2.443312 -1.10459,4.98028 -1.11561,7.806479 0.006,1.743649 0.16803,3.605745 0.71068,5.67168 l 11.99344,-3.195312 -12.11739,2.682961 c 0,0.0028 0.11844,0.542652 0.30575,1.399326 1.42137,6.531109 7.40432,34.03008 13.07324,60.069124 2.83171,13.020895 5.58629,25.678195 7.65498,35.170475 1.03572,4.74614 1.8979,8.70172 2.51218,11.5169 0.30851,1.40759 0.55367,2.53146 0.72996,3.32753 0.0854,0.39942 0.15701,0.71619 0.20659,0.95309 l 0.0661,0.29749 0.0606,0.2672 c 0.16803,0.71343 0.40217,1.42687 0.69416,2.09899 3.40466,7.83678 7.93319,13.93817 11.62432,18.23531 3.70216,4.28889 6.60549,6.7625 6.98286,7.07927 l 7.9938,-9.48952 0.5454,-12.39837 -44.58838,-1.96126 -0.54541,12.39837 11.21114,-5.32185 -3.11818,-6.56141 -11.20563,5.32185 8.11774,9.38485 c 0.56745,-0.50684 2.24498,-1.98881 4.08229,-4.73788 0.91177,-1.37729 1.8621,-3.09064 2.61961,-5.2034 0.752,-2.10725 1.30567,-4.63871 1.30567,-7.45114 0,-1.14039 -0.0937,-2.32762 -0.28648,-3.52586 l -0.0634,-0.34983 c -0.0716,-0.38289 -1.33046,-6.89747 -2.67745,-13.82248 -1.34974,-6.9443 -2.76835,-14.23843 -3.20908,-16.4173 -1.11836,-5.54772 -5.82594,-9.62175 -11.47834,-9.93301 -1.8979,-0.10743 -6.3796,-0.33055 -10.97149,-0.56194 -4.57811,-0.23138 -9.25263,-0.46828 -11.33234,-0.58121 -6.47051,-0.3581 -12.11189,4.3054 -12.98509,10.72633 -0.58122,4.30816 -1.56736,11.04586 -2.48739,17.49985 -0.46001,3.23387 -0.9035,6.40164 -1.27537,9.20305 -0.37737,2.80967 -0.67487,5.21442 -0.86218,7.12334 v 0.003 c -0.0689,0.72996 -0.10192,1.43789 -0.10192,2.11551 0.0138,3.47904 0.752,6.37135 1.61969,8.83669 1.32496,3.68563 3.01351,6.50632 4.38254,8.59705 1.36903,2.0742 2.45709,3.37436 2.68021,3.64431 l 9.50054,-7.98828 0.0744,-12.40939 -0.0744,12.40939 m 3.43772,-73.090027 12.19177,2.316602 c 0.25893,-1.363517 0.54265,-3.071357 0.89524,-5.217174 1.04949,-6.39338 2.64715,-16.524725 4.72961,-27.534781 l -12.19452,-2.305583 -12.06231,2.933627 c 1.82353,7.495212 3.29448,14.389925 4.44314,20.03406 0.57295,2.823444 1.07153,5.332866 1.48747,7.464911 0.42145,2.140309 0.76577,3.881203 1.06878,5.291548 l 12.13117,-2.614096 0.43247,-12.401119 c -4.58087,-0.159765 -8.67968,-0.22863 -12.69311,-0.371868 l -0.42971,12.403873 12.19177,2.316602 -12.19177,-2.316602 -0.43247,12.401117 c 4.30541,0.1515 8.38769,0.22037 12.69035,0.37187 3.81234,0.13222 7.50898,-1.517773 9.9523,-4.440383 2.44331,-2.922609 3.41567,-6.85064 2.61134,-10.577586 -0.22312,-1.041232 -0.56194,-2.740807 -0.97788,-4.861834 -1.2616,-6.396134 -3.2807,-16.709282 -6.16475,-28.567748 -1.38004,-5.677189 -6.53662,-9.621748 -12.37908,-9.470246 -5.84246,0.151502 -10.78694,4.357746 -11.87499,10.101045 -1.43789,7.632941 -2.64991,14.789339 -3.60299,20.584975 -0.47655,2.897818 -0.88698,5.454068 -1.22855,7.539285 -0.34157,2.076954 -0.61978,3.715929 -0.78781,4.600149 -0.68038,3.57269 0.22588,7.222508 2.49565,10.065235 2.26978,2.839972 5.62761,4.528528 9.26365,4.655238 l 0.43523,-12.401117 z"
   id="path41"
   clip-path="none" /><rect
   style="fill:#ffffff"
   x="465.23474"
   y="183.68373"
   width="0.01101832"
   height="0.18731144"
   id="rect43"
   clip-path="none" /><path
   style="fill:#ee3224"
   d="m 712.28753,243.46639 c -95.07708,-9.18377 -316.95023,-4.75165 -555.92656,95.12391 0.50409,-0.11018 9.04053,-43.06235 9.04053,-43.06235 0,0 -28.34738,-29.68611 -28.22342,-30.09929 74.53617,-33.29185 208.14156,-69.06007 321.36031,-81.57138 h 0.008 c 93.94495,-10.60788 168.09273,-12.89694 247.73314,-4.87285 l -10.59687,28.49888 16.60461,35.98308"
   id="path45"
   clip-path="none" /><path
   style="fill:#ed1c24"
   d="m 716.10262,154.53478 c 0,-4.81225 3.61126,-8.41524 8.25548,-8.41524 4.5726,0 8.20589,3.60299 8.20589,8.41524 0,4.87836 -3.63053,8.47309 -8.20589,8.47309 -4.64422,0 -8.25548,-3.59473 -8.25548,-8.47309 m 8.25548,10.14787 c 5.52018,0 10.225,-4.27511 10.225,-10.14787 0,-5.82043 -4.70482,-10.09829 -10.225,-10.09829 -5.58353,0 -10.30764,4.27786 -10.30764,10.09829 0,5.87276 4.72411,10.14787 10.30764,10.14787 z m -2.15133,-9.35455 h 2.04115 l 3.07411,5.07944 h 1.98054 l -3.32753,-5.15657 c 1.72712,-0.2121 3.02453,-1.12662 3.02453,-3.21735 0,-2.31109 -1.36627,-3.31927 -4.10708,-3.31927 h -4.45691 v 11.69319 h 1.77395 v -5.07944 z m 0,-1.49849 v -3.6085 h 2.41302 c 1.24231,0 2.55074,0.26995 2.55074,1.7161 0,1.79599 -1.34424,1.8924 -2.84548,1.8924 h -2.11828 z"
   id="path47"
   clip-path="none" /><path
   style="fill:#231f20"
   d="m 381.36057,135.45931 c 0,0 -14.88024,20.29575 -15.93249,21.76119 -1.22304,0.23689 -10.51974,2.20641 -17.38691,3.51759 -0.0441,-20.00926 -0.30301,-107.205491 -0.30301,-107.205491 0,-3.569936 1.98606,-11.706965 3.4873,-13.547024 l -6.77902,-3.743474 -35.08508,6.577937 2.26426,3.319268 c 2.77386,3.18154 3.95282,6.379608 3.95282,10.696034 l -0.0854,117.33409 c 0,6.57518 -3.31927,12.70136 -4.31643,14.36513 l 5.80666,6.14547 69.86441,-13.03743 2.32762,-41.52254 -7.81474,-4.66075"
   id="path49"
   clip-path="none" /><path
   style="fill:#231f20"
   d="m 581.35409,113.17476 c 0,0 -14.83893,18.73115 -16.25203,20.72271 -1.66927,-0.0799 -15.91871,0.93105 -22.78588,1.24782 -0.0496,-17.31529 0.13222,-105.285551 0.13222,-105.285551 0.91176,-8.858729 3.74898,-9.968824 3.74898,-9.968824 l -4.78195,-5.365922 -38.80101,2.313847 2.91159,4.057496 c 2.88404,3.977614 4.10157,7.561322 4.10157,11.96865 l -0.24516,109.130944 c 0,8.66591 -6.63303,15.32648 -10.05422,18.05903 l 5.48988,6.96909 75.85287,-4.01618 7.64947,-43.68213 -6.96633,-6.15098"
   id="path51"
   clip-path="none" /><path
   style="fill:#231f20"
   d="m 291.48413,89.270519 v 86.218351 c 0,19.83573 -16.13633,35.98583 -35.97206,35.98583 -7.78168,0 -15.12264,-1.58939 -22.09999,-5.74881 -12.59945,-7.49796 -18.8551,-19.0975 -18.8551,-33.22023 V 86.265272 c 0,-19.838485 16.13082,-35.961041 35.9638,-35.961041 29.57867,0 40.96335,24.813256 40.96335,38.966288 m -46.77827,-6.991124 v 98.947265 c 0,2.89231 0.43522,4.58913 1.24782,5.86175 1.1101,1.74089 3.64982,2.02461 4.658,2.02461 6.00223,0 10.88334,-4.88387 10.88334,-10.87233 V 79.546851 c 0,-2.908836 -2.20917,-7.475929 -6.56692,-7.616413 -5.61934,-0.151502 -10.22224,4.335709 -10.22224,10.348957 z"
   id="path53"
   clip-path="none" /><path
   style="fill:#231f20"
   d="m 482.70707,18.563207 -38.21704,4.013423 c 0,0 7.14262,5.365922 7.47868,12.180752 0,0.371869 0.16252,107.166928 0.16252,107.166928 0,6.01876 -5.46784,10.89712 -12.19177,10.89712 -1.43789,0 -7.23352,0.0799 -7.20047,-7.90564 l -0.20935,-99.517466 c 0,-5.073936 0.84566,-12.070569 3.3358,-14.957368 l -4.34122,-6.478772 -39.54199,5.151064 c 0,0 7.81198,5.481614 8.64938,14.114468 l 0.0248,92.983594 c 1.47921,32.12942 30.87058,37.28324 42.35717,37.28324 21.60693,0 41.03498,-18.54934 41.03498,-38.38231 l 0.25342,-98.101611 c 0,-3.831621 1.73263,-11.109221 3.07962,-12.965808 l -4.67452,-5.481614"
   id="path55"
   clip-path="none" /><path
   style="fill:#231f20"
   d="m 194.44579,208.98732 c 0.0358,-4.76543 -0.0854,-120.074897 -0.0854,-122.063704 0,-1.696821 -0.16803,-6.302478 2.50116,-11.789602 l -6.33003,-4.977525 -34.02181,10.175418 4.17043,2.980455 c 1.64724,1.170697 2.69949,3.669101 3.10441,7.415329 0,0.278213 -0.14874,41.189229 -0.15701,44.552579 -2.13204,0.66385 -13.50019,4.23103 -20.76678,6.51458 0,-11.34612 0,-36.75712 0,-36.75712 0,-4.56434 1.48197,-13.626903 1.48197,-13.626903 l -5.47335,-4.313672 -33.3194,11.189104 2.07971,2.892311 c 2.06318,2.84823 4.39355,6.08762 4.39355,10.01014 l -0.0771,123.29775 c 0,7.12885 -2.65817,12.18351 -3.33028,13.45062 l 7.82025,5.29981 36.54226,-13.74536 -3.39915,-2.77937 c -3.14849,-2.59757 -6.55866,-8.14254 -6.55866,-14.19435 0,0 0.14048,-50.73661 0.15701,-54.05863 2.06594,-0.69691 13.4093,-4.5423 20.78606,-7.08478 0.022,14.72323 0.16252,52.84662 0.16252,52.84662 0,2.7656 -1.82629,11.6078 -3.82611,14.60203 4.82327,3.6691 7.80648,5.66341 7.80648,5.66341 l 35.47072,-12.81706 c 0,0 -9.45647,-5.96642 -9.13143,-12.68208"
   id="path57"
   clip-path="none" /><path
   style="fill:#231f20"
   d="M 144.0177,302.78627 C 118.82982,287.57823 49.846875,223.93367 51.805381,135.82016 52.794276,90.749728 64.8979,76.57466 73.236013,67.834378 79.706521,61.019547 89.664328,56.70863 95.498528,57.350447 105.91359,58.521143 107.31568,68.649733 107.79773,71.635698 l 5.80941,7.811989 25.59004,-24.752655 -1.32495,-8.979931 C 112.00122,30.091124 87.587374,31.289366 73.908131,35.016313 56.749852,39.666044 42.200161,49.521931 31.785095,63.501424 19.202174,80.398017 12.690347,102.98557 12.420398,130.61401 c -0.826374,85.26526 51.598791,133.00489 73.778668,150.05574 21.675794,16.71479 43.684884,22.27904 50.510734,23.93454 8.93035,2.18163 10.33243,0 7.3079,-1.81802"
   id="path59"
   clip-path="none" /><path
   style="fill:#ee3224"
   d="m 114.44453,234.48646 0.0771,-123.29775 c 0,-4.82327 -2.82069,-8.64663 -4.98855,-11.63259 l 28.50164,-9.627257 c -1.99156,3.809584 -2.65541,7.478685 -2.65541,12.120147 0,4.64974 0,44.70684 0,44.70684 l 30.90087,-9.64379 V 90.595471 c -0.16527,-1.509509 -0.67487,-6.834112 -4.15941,-9.31048 l 27.08854,-7.985527 c -1.98881,6.324516 -2.32762,10.310393 -2.32762,12.29369 0,1.988807 0.0909,120.468796 0.0909,120.468796 0.16252,4.98855 1.99156,7.32168 6.32176,11.63259 l -29.33077,10.12859 c 0.9944,-0.99715 2.48463,-8.29128 2.48463,-11.27725 l 0.16803,-63.48205 -30.91465,10.63544 c 0,0 -0.16527,48.8387 -0.16527,55.83258 0,6.96633 3.82611,13.11455 7.48419,16.1198 l -30.9119,11.1285 c 0.83464,-2.1651 2.33589,-2.65541 2.33589,-12.29369"
   id="path61"
   clip-path="none" /><path
   style="fill:#ee3224"
   d="m 314.9201,187.4768 c 1.81527,-4.58087 3.05758,-3.66634 3.05758,-13.30737 l 0.0854,-117.33409 c 0,-4.823269 -1.3277,-8.610817 -4.56709,-12.315727 L 344.485,38.834161 c -1.24231,1.234051 -4.24205,7.462157 -4.24205,11.717982 0,4.484457 0.34432,114.149787 0.34432,114.149787 l 27.40532,-5.23645 14.45053,-19.94591 -3.4873,35.6663 -64.03572,12.29093"
   id="path63"
   clip-path="none" /><path
   style="fill:#ee3224"
   d="m 502.98078,159.95579 c 3.74623,-2.98872 8.9028,-8.29679 8.9028,-17.94333 l 0.24791,-109.150229 c 0,-4.826024 -1.34148,-8.941366 -4.57811,-13.434086 l 32.20104,-2.096235 c -1.24783,0.953085 -4.24481,6.437453 -4.24481,10.696034 0,4.470683 0,111.136276 0,111.136276 l 30.54003,-2.03012 15.79476,-18.98181 -6.75147,36.96095 -72.11215,4.84255"
   id="path65"
   clip-path="none" /><path
   style="fill:#ee3224"
   d="m 284.00269,172.50566 c 0,18.48048 -14.98767,33.47365 -33.48191,33.47365 -18.48324,0 -33.46815,-14.99317 -33.46815,-33.47365 V 86.265272 c 0,-18.48874 14.98491,-33.479164 33.46815,-33.479164 18.49424,0 33.48191,14.990424 33.48191,33.479164 V 172.50566 M 263.99343,80.290588 c 0,-7.401556 -5.99397,-13.373485 -13.38175,-13.373485 -7.39054,0 -13.39002,5.971929 -13.39002,13.373485 v 97.950102 c 0,7.37952 5.99948,13.37624 13.39002,13.37624 7.38778,0 13.38175,-5.99672 13.38175,-13.37624 V 80.290588 z"
   id="path67"
   clip-path="none" /><path
   style="fill:#ee3224"
   d="m 476.81502,33.999873 -0.25066,102.211437 c 0,18.48048 -16.43383,33.45713 -36.72131,33.45713 -20.27922,0 -36.69927,-14.97665 -36.69927,-33.45713 l -0.0193,-92.983594 c 0,-2.809672 -4.23379,-12.026496 -5.98845,-12.279918 l 32.90345,-4.159415 c -3.15675,3.652573 -4.99405,10.464649 -4.99405,15.618468 l 0.2121,99.517459 c 0,7.37677 6.56141,13.379 14.6764,13.379 8.10398,0 14.6709,-6.00223 14.6709,-13.379 L 454.46712,35.085177 c -0.25618,-2.222946 -1.99983,-7.96349 -4.49823,-10.282846 l 31.66114,-3.583709 c 0.006,0 -4.81501,7.316164 -4.81501,12.781251"
   id="path69"
   clip-path="none" /><path
   style="fill:#231f20"
   d="m 674.24127,16.703866 -3.32753,-4.159416 -4.58086,0.0303 -46.54414,-0.165274 2.08522,4.465174 c 1.79047,3.834375 2.55625,6.206068 1.99982,9.362817 -0.7217,4.16217 -23.07512,115.976073 -24.1191,120.567963 -1.19549,2.51218 -1.97503,4.58362 -5.9251,7.49521 l 3.53412,7.07927 41.12588,0.26169 c 0,0 -6.35206,-7.54755 -5.72402,-14.00429 0.62805,-6.45398 3.37436,-24.50199 4.57536,-33.36622 4.28888,0.23689 18.65677,0.94206 22.30384,1.14315 0.83188,4.11534 5.7185,29.36657 5.86725,30.14336 0.92278,5.61659 -3.59197,9.52259 -3.59197,9.52259 l 3.11267,6.56141 44.58839,1.96126 c 0,0 -9.80906,-8.26374 -15.21079,-20.75576 -0.3581,-1.52604 -24.32294,-111.687199 -24.57912,-112.852386 -1.201,-4.473438 1.44891,-12.076079 4.41008,-13.290848 m -32.31948,71.847707 c 0.85392,-4.498229 2.79314,-17.775304 5.6221,-32.740936 3.74347,15.406365 6.01324,28.206898 7.06825,33.11005 -4.44039,-0.154257 -8.52818,-0.223121 -12.69035,-0.369114 z"
   id="path71"
   clip-path="none" /><path
   style="fill:#ee3224"
   d="M 110.78369,71.305148 134.71273,48.395307 C 130.7241,46.048405 105.1368,29.10223 74.563721,37.421061 44.786712,45.500244 15.483491,71.778936 14.910538,130.63054 c -0.834637,85.22394 51.348124,132.10138 72.78151,148.05316 21.422372,15.94626 42.032132,23.08888 52.006472,24.59289 -25.58454,-17.95711 -96.70504,-73.79245 -95.369068,-170.49748 0.7823,-57.821389 31.217654,-80.736739 46.838876,-80.736739 13.139342,0 18.612692,12.960299 19.615362,19.262777"
   id="path73"
   clip-path="none" /><path
   style="fill:#ee3224"
   d="m 666.31635,15.69018 c -1.99156,0.999913 -3.71869,6.487036 -3.24214,8.977176 0,0 25.46058,117.391934 25.69747,118.383584 1.66652,6.82034 8.74028,12.90796 8.74028,12.90796 l -31.64461,-1.24783 c 2.00258,-1.9888 3.0686,-5.567 3.08513,-8.21415 l -7.66875,-38.00494 -29.98636,-1.66652 c 0,0 -4.98028,36.82322 -5.21993,38.55861 -0.24515,1.75466 0.98339,7.72659 2.23121,8.97717 l -30.27558,0.022 c 2.66918,-1.95575 4.68829,-4.77093 5.79288,-9.29671 0,0 22.38096,-114.072662 23.11643,-118.31196 0.74925,-4.231035 -0.47929,-7.47593 -2.23121,-11.219404 l 41.60518,0.134974 m -31.63911,74.941101 23.27345,0.790564 -12.49478,-57.893005 -10.77867,57.102441 z"
   id="path75"
   clip-path="none" /><path
   style="fill:#231f20"
   d="m 216.23727,292.77062 c 0.0248,4.44589 -0.52888,9.51983 3.61401,10.77591 v 0.25618 c -7.54479,2.98321 -15.08959,5.97744 -22.63713,8.9937 v -0.25893 c 4.10432,-4.07402 3.48454,-8.77884 3.45424,-13.26881 -0.0744,-11.14227 -0.14599,-22.27353 -0.21761,-33.42132 -0.0303,-4.4817 0.52612,-9.57492 -3.61677,-10.98526 l -0.003,-0.25342 c 7.54479,-2.32487 15.09234,-4.63321 22.63989,-6.93328 v 0.25618 c -4.18972,3.92803 -3.48454,8.60255 -3.44873,13.04844 0.0165,3.24765 0.0441,6.49806 0.0633,9.7402 5.01885,-1.58664 10.04871,-3.17603 15.06755,-4.75165 -0.0193,-3.22837 -0.0468,-6.44297 -0.0661,-9.67133 -0.0331,-4.39631 0.51787,-9.40965 -3.61951,-10.78694 v -0.25342 c 7.54479,-2.29181 15.09509,-4.56709 22.63989,-6.80932 v 0.24791 c -4.10433,3.83162 -3.47904,8.45381 -3.44874,12.81706 0.0661,10.42608 0.14324,20.84942 0.21486,31.26448 0.0303,4.3605 -0.52612,9.34905 3.61126,10.58585 l 0.008,0.25067 c -7.5503,2.49565 -15.0951,5.00783 -22.64265,7.51725 l -0.006,-0.26169 c 4.10708,-3.99965 3.4873,-8.62183 3.457,-13.03742 -0.0358,-4.42937 -0.0633,-8.867 -0.0936,-13.29912 -5.01609,1.60042 -10.04045,3.20083 -15.0648,4.81776 0.0303,4.4762 0.0606,8.94413 0.0936,13.42032"
   id="path77"
   clip-path="none" /><path
   style="fill:#231f20"
   d="m 284.59217,226.2971 c 17.23817,-4.30817 30.33344,2.59206 31.14053,20.6015 0.8126,17.8359 -12.93275,32.2396 -29.5897,37.02706 -16.83048,4.85357 -30.36924,-2.65541 -31.14328,-20.62629 -0.79607,-18.14717 12.93,-32.85388 29.59245,-37.00227 m -9.24161,44.91618 c 2.47637,3.39639 6.72668,5.40724 11.39845,4.10432 4.35224,-1.21752 8.20038,-4.58087 10.66573,-8.85873 2.31385,-3.98588 2.70776,-8.36841 2.5232,-12.42591 -0.42145,-9.41791 -4.71584,-21.98155 -15.9683,-19.12505 -9.68235,2.46811 -13.53601,13.11456 -13.15312,21.79699 0.21761,4.88387 2.05216,10.93844 4.53404,14.50838 z"
   id="path79"
   clip-path="none" /><path
   style="fill:#231f20"
   d="m 349.30827,254.79322 c 0.006,4.63596 0.10192,8.26925 3.64707,10.68502 v 0.23414 c -7.4291,1.76569 -14.84443,3.50107 -22.26803,5.264 v -0.23965 c 4.01618,-3.49831 3.4267,-8.0296 3.42395,-12.30195 -0.0413,-10.97976 -0.0606,-21.96778 -0.0964,-32.96957 -1.39107,-0.0248 -2.63063,0.23139 -4.10708,0.53439 -3.78204,0.80158 -6.162,2.20642 -9.27467,5.0216 l -0.58122,0.5399 c 1.05501,-4.47895 2.12103,-8.94412 3.17328,-13.39277 0.51786,-0.0303 1.04123,-0.0496 1.5646,-0.0826 12.70688,-2.61409 25.41651,-5.20891 38.12889,-7.78444 -0.91452,4.24205 -1.83455,8.49237 -2.74907,12.75646 -1.24782,-2.48739 -3.79581,-2.77662 -6.75423,-2.14857 -1.48747,0.31677 -2.78763,0.66661 -4.18971,1.36627 0.0248,10.83927 0.0551,21.67854 0.0826,32.51781"
   id="path81"
   clip-path="none" /><path
   style="fill:#231f20"
   d="m 389.10094,243.26255 c 4.48996,2.90609 11.13401,4.28338 17.00953,3.24765 3.6691,-0.64457 8.67692,-2.70775 8.79262,-7.1316 0.23689,-9.62726 -24.72511,-3.45425 -24.27612,-21.44992 0.10743,-4.58086 2.49841,-9.32701 6.32176,-12.52507 4.23655,-3.50383 9.30497,-5.19514 14.30454,-5.93061 4.56709,-0.67488 9.45096,-0.6005 13.65445,0.3333 -0.0799,3.06309 -0.15701,6.1317 -0.23138,9.18102 -3.37161,-1.58664 -7.3327,-2.5535 -11.41498,-1.92821 -3.19807,0.47379 -7.15365,2.41852 -7.23629,6.15373 -0.0937,3.82336 4.60566,4.58362 7.58887,5.36592 3.89222,1.02746 7.52551,1.94198 10.72634,4.15666 3.83437,2.66368 5.86725,5.82594 5.75156,10.83928 -0.12671,5.09046 -2.45158,10.00738 -6.85064,13.84727 -4.89489,4.23379 -10.14512,5.90031 -15.94351,6.9498 -5.3852,0.96411 -10.75112,0.99441 -15.77272,-0.0248 -0.79883,-3.69664 -1.61419,-7.38227 -2.42403,-11.08443"
   id="path83"
   clip-path="none" /><path
   style="fill:#231f20"
   d="m 452.7152,230.4813 c -0.77954,1.84282 -1.54532,3.6994 -2.31109,5.54497 -0.68864,1.63622 -1.74089,4.17319 -1.84832,5.8039 -0.15426,2.19265 1.24782,2.98597 2.63062,3.95007 l -0.008,0.23689 c -5.57527,0.79332 -11.14503,1.57287 -16.71204,2.35792 l 0.0193,-0.23689 c 3.27244,-3.18705 4.48997,-5.60557 6.2226,-9.79804 4.44589,-10.91916 8.89729,-21.74465 13.34869,-32.49303 0.60326,-1.61418 2.10726,-4.79021 2.22295,-6.4099 0.14875,-2.08797 -1.22854,-3.31927 -2.7959,-4.15115 l 0.0193,-0.22863 c 6.65231,-0.73548 13.31564,-1.46269 19.96795,-2.20091 4.23655,12.58016 8.46483,25.04464 12.6876,37.40168 1.6252,4.5974 1.90066,6.30799 6.26942,9.6548 l -0.0138,0.15151 v 0.0826 c -8.20589,1.1707 -16.40077,2.34415 -24.61217,3.51209 l 0.0193,-0.22863 c 1.95024,-1.41861 3.49556,-2.70499 3.66084,-5.15657 0.0826,-1.31394 -0.0523,-1.67203 -0.45175,-2.83997 -0.73548,-2.35241 -1.45993,-4.7186 -2.18714,-7.08478 -5.37143,0.70792 -10.75388,1.42136 -16.12807,2.13204 m 9.3518,-23.43596 -0.0826,0.0138 c -2.14582,5.27777 -4.28613,10.5886 -6.42093,15.89393 3.69389,-0.47104 7.39054,-0.94483 11.09545,-1.41035 -1.53706,-4.81776 -3.06585,-9.64654 -4.59189,-14.49735 z"
   id="path85"
   clip-path="none" /><path
   style="fill:#231f20"
   d="m 528.85455,230.18381 c -3.13747,4.55607 -8.04889,7.83402 -13.99602,8.44279 -4.33296,0.45726 -8.58603,-0.37187 -11.70697,-3.0934 -3.53137,-3.12369 -3.76826,-6.82034 -3.76,-11.44528 0.006,-7.96624 0.0331,-15.92973 0.0413,-23.87945 0.008,-3.94731 0.58397,-8.29955 -3.35232,-10.37926 v -0.22863 c 7.12609,-0.49031 14.25219,-0.9944 21.37829,-1.49849 v 0.22312 c -3.95282,2.60859 -3.38538,6.85064 -3.3964,10.75388 -0.0165,6.83687 -0.0275,13.66547 -0.0358,20.49408 -0.022,2.94464 -0.17904,5.79839 1.74641,8.09846 1.2065,1.38831 3.20633,2.0136 5.21166,1.81251 7.31341,-0.73547 7.88912,-8.74303 7.9084,-13.72056 0.006,-5.94438 0.0138,-11.90254 0.0276,-17.84968 0.011,-3.86743 0.5757,-8.13702 -3.35233,-10.17266 v -0.21486 c 7.15089,-0.50959 14.29903,-1.03296 21.44716,-1.56184 v 0.22312 c -3.9418,2.56451 -3.38262,6.72944 -3.39089,10.55004 -0.0248,9.14245 -0.0441,18.27113 -0.0578,27.3943 -0.006,3.82886 -0.58948,8.08744 3.34681,9.94954 v 0.21761 c -6.01875,0.64457 -12.04578,1.27813 -18.07004,1.91168 -0.003,-2.01084 0.011,-4.02169 0.011,-6.02702"
   id="path87"
   clip-path="none" /><path
   style="fill:#231f20"
   d="m 599.91444,193.60299 c -3.80407,-2.15959 -8.38494,-3.32478 -13.18066,-3.12645 -11.00455,0.43247 -14.5552,8.52267 -15.01797,17.30978 -0.54541,10.01014 4.3908,17.82213 16.35119,17.02881 6.25289,-0.40492 12.05404,-2.85925 17.57422,-5.76533 -1.52604,3.53963 -3.04657,7.08478 -4.5671,10.6492 -5.28604,1.65 -10.69603,2.46811 -16.0592,2.84273 -8.1811,0.56744 -15.02348,-0.18731 -21.17445,-4.81225 -5.91133,-4.35499 -8.83945,-11.08168 -8.44555,-18.55761 0.36085,-6.75147 3.86468,-13.99051 9.71265,-18.71186 6.35757,-4.95824 14.86923,-6.96082 22.7308,-7.25556 4.02168,0.16803 8.03235,0.32504 12.0623,0.47103 0.003,3.31652 0.0138,6.62201 0.0138,9.92751"
   id="path89"
   clip-path="none" /><path
   style="fill:#231f20"
   d="m 627.77977,221.65287 c 2.63614,0.82913 5.60282,0.86219 8.39321,0.77129 4.47619,-0.15426 8.63836,-0.94207 11.65463,-4.20625 l 0.40217,-0.0165 c -1.05225,3.50107 -2.12103,7.00214 -3.16777,10.51974 -11.80062,0.49307 -23.60951,0.92829 -35.39635,1.33321 v -0.20935 c 3.90599,-2.32486 3.33855,-6.24738 3.31927,-9.91924 -0.022,-8.78711 -0.0551,-17.57697 -0.0689,-26.36684 -0.011,-3.67185 0.52888,-7.68252 -3.38262,-9.80079 l -0.011,-0.2121 c 9.33252,-0.008 18.65126,-0.0468 27.97827,-0.1157 1.2065,-0.006 2.47636,-0.0138 3.34957,-0.37187 h 0.24791 c 0.006,3.3358 0.022,6.68537 0.0248,10.01841 l -0.23414,0.008 c -2.17061,-3.22286 -6.72393,-2.81794 -10.63819,-2.77938 -0.86218,0.006 -1.70784,0.0165 -2.559,0.0276 0.008,3.76276 0.0248,7.53378 0.0331,11.29929 2.47637,-0.0468 4.95274,-0.0881 7.42635,-0.13773 1.11836,-0.022 2.23672,-0.11294 2.96117,-0.40768 l 0.39666,-0.003 c 0,3.23387 0.0193,6.4705 0.0303,9.68785 l -0.39666,0.0138 c -1.12386,-2.74357 -4.80949,-2.3717 -7.76516,-2.30283 -0.87595,0.0165 -1.75742,0.0303 -2.63337,0.0578 0.005,4.37152 0.022,8.74855 0.0358,13.1118"
   id="path91"
   clip-path="none" /><path
   style="fill:#ffffff"
   d="m 219.15713,290.28323 c 0.0275,4.44038 -0.52337,9.5033 3.61676,10.77316 l 0.006,0.25067 c -7.55306,2.97495 -15.09785,5.98846 -22.6454,8.9937 v -0.25066 c 4.10983,-4.07403 3.48454,-8.79262 3.457,-13.27432 -0.0744,-11.14228 -0.14875,-22.27354 -0.21761,-33.41857 -0.0331,-4.48996 0.52337,-9.57767 -3.61677,-10.97975 v -0.25342 c 7.5448,-2.33864 15.08959,-4.64147 22.63989,-6.93328 v 0.25067 c -4.19247,3.92252 -3.48454,8.61081 -3.45424,13.03742 0.0248,3.24765 0.0441,6.50907 0.0689,9.75397 5.01884,-1.5949 10.04319,-3.17603 15.06479,-4.76542 -0.0275,-3.21184 -0.0468,-6.43195 -0.0633,-9.65481 -0.0358,-4.41283 0.52061,-9.4179 -3.61952,-10.79519 v -0.26169 c 7.54204,-2.28355 15.08959,-4.55057 22.64265,-6.80657 v 0.24516 c -4.10708,3.83713 -3.48179,8.45932 -3.45425,12.83359 0.0689,10.41507 0.14049,20.83013 0.21211,31.2452 0.0303,4.37152 -0.52337,9.36833 3.61401,10.60513 l 0.003,0.25067 c -7.54204,2.48463 -15.08683,4.98854 -22.63989,7.50898 l -0.003,-0.25617 c 4.10984,-4.00792 3.48179,-8.6301 3.45425,-13.03468 -0.0248,-4.44589 -0.0578,-8.87525 -0.0937,-13.31013 -5.01609,1.60042 -10.03769,3.2146 -15.0648,4.82052 0.0358,4.4817 0.0661,8.94412 0.0937,13.42582"
   id="path93"
   clip-path="none" /><path
   style="fill:#ffffff"
   d="m 287.50927,223.79594 c 17.24092,-4.2999 30.33068,2.61134 31.14328,20.61803 0.80434,17.8359 -12.92999,32.22307 -29.58969,37.02706 -16.83049,4.83429 -30.37476,-2.65266 -31.14604,-20.6318 -0.78781,-18.15819 12.93826,-32.85112 29.59245,-37.01329 m -9.23335,44.91067 c 2.47362,3.39915 6.72118,5.42927 11.40121,4.11259 4.34673,-1.21753 8.18936,-4.56985 10.66298,-8.85322 2.31935,-3.9969 2.70224,-8.36015 2.51493,-12.43418 -0.40768,-9.42066 -4.70758,-21.98155 -15.96279,-19.12229 -9.6796,2.48187 -13.53325,13.11731 -13.15037,21.81076 0.21486,4.88663 2.05217,10.93568 4.53404,14.48634 z"
   id="path95"
   clip-path="none" /><path
   style="fill:#ffffff"
   d="m 352.23639,252.29207 c 0.006,4.6332 0.0992,8.28302 3.6388,10.69328 v 0.24515 c -7.42359,1.7409 -14.84718,3.50107 -22.27078,5.26125 v -0.24791 c 4.01894,-3.49832 3.4267,-8.03236 3.42395,-12.30196 -0.0386,-10.99077 -0.0579,-21.97603 -0.0964,-32.96956 -1.38831,-0.0331 -2.62236,0.23414 -4.09606,0.53714 -3.7848,0.79883 -6.16751,2.20366 -9.28294,5.02435 L 322.98,229.0682 c 1.05225,-4.47343 2.11552,-8.93585 3.16501,-13.40378 0.52062,-0.011 1.04674,-0.0413 1.5646,-0.0661 12.70964,-2.61961 25.42202,-5.20616 38.13441,-7.79271 -0.92279,4.24481 -1.83731,8.50339 -2.75458,12.76472 -1.24783,-2.48463 -3.79581,-2.77386 -6.74872,-2.14581 -1.49023,0.303 -2.80417,0.65834 -4.18972,1.34974 0.011,10.83927 0.0523,21.67854 0.0854,32.51782"
   id="path97"
   clip-path="none" /><path
   style="fill:#ffffff"
   d="m 392.0263,240.77517 c 4.48996,2.90883 11.13401,4.27786 17.01228,3.24765 3.66635,-0.65284 8.67142,-2.71326 8.78161,-7.13436 0.23964,-9.62175 -24.71134,-3.45149 -24.27061,-21.45818 0.11019,-4.5671 2.49565,-9.32425 6.32452,-12.51957 4.22828,-3.50107 9.31048,-5.18963 14.29076,-5.92785 4.57536,-0.67212 9.45647,-0.60326 13.66547,0.3333 -0.0744,3.06309 -0.15977,6.12894 -0.23965,9.18652 -3.36885,-1.58939 -7.33269,-2.55625 -11.40947,-1.93922 -3.19256,0.48481 -7.14813,2.43229 -7.23077,6.1675 -0.0909,3.81234 4.6029,4.56434 7.58611,5.35766 3.88947,1.03022 7.52,1.93647 10.72358,4.15391 3.83989,2.66092 5.87001,5.82318 5.74605,10.83652 -0.13222,5.0822 -2.44606,10.00188 -6.83962,13.84727 -4.90039,4.23654 -10.14512,5.90306 -15.94626,6.9443 -5.39622,0.97787 -10.75939,0.9944 -15.77548,-0.0193 -0.80158,-3.68562 -1.60867,-7.38227 -2.41852,-11.07616"
   id="path99"
   clip-path="none" /><path
   style="fill:#ffffff"
   d="m 455.64057,227.98565 c -0.77679,1.85384 -1.55083,3.69665 -2.32211,5.55324 -0.68038,1.62244 -1.73263,4.15941 -1.85384,5.79839 -0.13772,2.18162 1.2616,2.99698 2.64165,3.95833 l -0.008,0.22036 c -5.567,0.79332 -11.14503,1.5894 -16.71479,2.36343 l 0.0193,-0.23414 c 3.2752,-3.17878 4.49823,-5.5973 6.23086,-9.78977 4.4459,-10.92191 8.90005,-21.76118 13.3487,-32.50129 0.59223,-1.61694 2.10725,-4.78471 2.20917,-6.40715 0.14875,-2.09348 -1.23681,-3.32203 -2.7959,-4.15116 l 0.022,-0.22863 c 6.66333,-0.73271 13.31013,-1.46543 19.96519,-2.19815 4.24206,12.58017 8.46758,25.04464 12.70137,37.40444 1.61419,4.60015 1.90066,6.29146 6.27218,9.6548 l -0.0165,0.15426 -0.0138,0.0661 c -8.19212,1.18447 -16.40352,2.34966 -24.5984,3.51484 l 0.008,-0.22863 c 1.95299,-1.42687 3.49005,-2.7105 3.65808,-5.16208 0.0964,-1.30567 -0.0413,-1.66377 -0.44349,-2.82344 -0.72721,-2.36619 -1.45717,-4.72686 -2.18714,-7.10131 -5.37143,0.71619 -10.74837,1.43238 -16.12255,2.13755 m 9.34904,-23.43045 -0.0826,0.011 c -2.1403,5.28329 -4.28337,10.57484 -6.42643,15.90219 3.70215,-0.46827 7.40156,-0.94482 11.08994,-1.4186 -1.52328,-4.81776 -3.06034,-9.64654 -4.58087,-14.4946 z"
   id="path101"
   clip-path="none" /><path
   style="fill:#ffffff"
   d="m 531.7744,227.68816 c -3.14573,4.54781 -8.04337,7.83127 -13.99326,8.45656 -4.33571,0.45726 -8.59429,-0.3884 -11.72074,-3.09615 -3.52862,-3.12645 -3.75725,-6.83136 -3.75725,-11.4563 0.0193,-7.95522 0.0358,-15.92147 0.0578,-23.87945 0.003,-3.94731 0.56744,-8.29404 -3.35784,-10.37926 v -0.22863 c 7.1261,-0.49307 14.2522,-0.98889 21.38381,-1.49573 v 0.22036 c -3.95833,2.60583 -3.3964,6.85615 -3.40742,10.75939 -0.0138,6.82861 -0.0303,13.66547 -0.0413,20.49408 -0.011,2.92811 -0.17629,5.8039 1.74916,8.09295 1.20375,1.3828 3.20633,2.00258 5.21442,1.8015 7.31617,-0.72721 7.89187,-8.73202 7.90014,-13.7123 0.0138,-5.95265 0.022,-11.89979 0.0331,-17.84417 0.022,-3.87019 0.58122,-8.13978 -3.36059,-10.16991 v -0.22037 c 7.1564,-0.51235 14.30729,-1.03847 21.46094,-1.56184 v 0.21761 c -3.94456,2.57002 -3.37712,6.72944 -3.39365,10.56106 -0.0248,9.13143 -0.0413,18.25735 -0.0551,27.38879 -0.0193,3.82611 -0.58948,8.08193 3.34682,9.94954 v 0.22863 c -6.01601,0.64182 -12.04578,1.26711 -18.0728,1.8924 0.006,-1.99432 0.0138,-4.00792 0.0138,-6.01876"
   id="path103"
   clip-path="none" /><path
   style="fill:#ffffff"
   d="m 602.83705,191.11285 c -3.80132,-2.15959 -8.39045,-3.32478 -13.18342,-3.12645 -11.00454,0.43247 -14.55795,8.52267 -15.01521,17.30702 -0.53714,10.01841 4.40182,17.8304 16.34017,17.03708 6.26667,-0.41594 12.08158,-2.87578 17.57973,-5.76809 -1.52053,3.53688 -3.04381,7.08753 -4.56985,10.63543 -5.2888,1.65826 -10.674,2.46811 -16.06196,2.84273 -8.17559,0.57295 -15.00695,-0.17078 -21.15793,-4.80123 -5.92234,-4.34673 -8.83944,-11.07892 -8.45105,-18.55761 0.36361,-6.75147 3.86468,-13.99602 9.72092,-18.71186 6.3493,-4.95824 14.86371,-6.96358 22.72253,-7.25556 4.02444,0.16803 8.04337,0.32228 12.06506,0.47103 -0.003,3.31651 0.011,6.61926 0.011,9.92751"
   id="path105"
   clip-path="none" /><path
   style="fill:#ffffff"
   d="m 630.70514,219.16824 c 2.63338,0.82913 5.59455,0.86219 8.38219,0.75751 4.48445,-0.1515 8.6356,-0.92554 11.66564,-4.18971 l 0.39391,-0.0165 c -1.0495,3.49005 -2.10726,7.00214 -3.16777,10.50872 -11.79236,0.49307 -23.59573,0.93931 -35.39911,1.32771 v -0.20109 c 3.91151,-2.32486 3.3358,-6.24738 3.32754,-9.91924 -0.0358,-8.77884 -0.0468,-17.57973 -0.0771,-26.37235 0,-3.6691 0.53439,-7.67701 -3.38538,-9.78702 v -0.22036 c 9.32425,-0.008 18.65126,-0.0468 27.97827,-0.1157 1.19548,-0.006 2.47085,-0.022 3.35507,-0.37187 h 0.24241 c 0.008,3.34131 0.008,6.68537 0.0275,10.02117 l -0.2424,0.006 c -2.16785,-3.21735 -6.71567,-2.81519 -10.63268,-2.77938 -0.86218,0.003 -1.70508,0.022 -2.56727,0.022 0.0165,3.76827 0.0248,7.53929 0.0331,11.31031 2.48463,-0.0496 4.96651,-0.0964 7.44287,-0.14049 1.1101,-0.0275 2.2257,-0.11569 2.9474,-0.40492 l 0.39391,-0.008 c 0.0138,3.23387 0.0386,6.45949 0.0386,9.6851 l -0.40767,0.0165 c -1.1101,-2.7353 -4.79848,-2.37445 -7.74588,-2.29732 -0.88147,0.0165 -1.76569,0.0303 -2.65266,0.0496 0.011,4.37703 0.0386,8.74854 0.0496,13.12006"
   id="path107"
   clip-path="none" />
</svg>